<svg width="32" height="32" viewBox="0 0 32 32" fill="none" xmlns="http://www.w3.org/2000/svg">
<path fill-rule="evenodd" clip-rule="evenodd" d="M0.411881 8.40059C-0.137294 7.85142 -0.137294 6.96103 0.411881 6.41185L6.06873 0.754998C6.61791 0.205824 7.5083 0.205824 8.05747 0.754998L30.6849 23.3824C31.2341 23.9316 31.2341 24.822 30.6849 25.3712L25.028 31.028C24.4789 31.5772 23.5885 31.5772 23.0393 31.028L0.411881 8.40059ZM3.39499 7.40622L24.0337 28.0449L27.7018 24.3768L7.0631 3.7381L3.39499 7.40622Z" fill="white"/>
<path fill-rule="evenodd" clip-rule="evenodd" d="M23.4119 0.411881C23.9611 -0.137294 24.8515 -0.137294 25.4007 0.411881L31.0575 6.06873C31.6067 6.61791 31.6067 7.5083 31.0575 8.05747L8.43009 30.6849C7.88091 31.2341 6.99052 31.2341 6.44135 30.6849L0.784496 25.028C0.235321 24.4789 0.235322 23.5885 0.784496 23.0393L23.4119 0.411881ZM24.4063 3.39499L3.7676 24.0337L7.43572 27.7018L28.0744 7.0631L24.4063 3.39499Z" fill="white"/>
<rect x="3.73096" y="24.0815" width="29.2722" height="5.16545" transform="rotate(-45 3.73096 24.0815)" fill="black"/>
<rect x="7.01709" y="3.75244" width="29.1927" height="5.11651" transform="rotate(45 7.01709 3.75244)" fill="black"/>
</svg>
