<svg width="32" height="32" viewBox="0 0 32 32" fill="none" xmlns="http://www.w3.org/2000/svg">
<path d="M26.3 2V20.2H19.6V8.70001C19.6 6.92306 20.3059 5.21887 21.5624 3.96237C22.8189 2.70588 24.5231 2 26.3 2Z" stroke="black" stroke-width="1.5" stroke-linecap="round" stroke-linejoin="round"/>
<path d="M22.4 20.1H26.3V28.5C26.3 29.0039 26.0998 29.4872 25.7435 29.8435C25.3872 30.1998 24.9039 30.4 24.4 30.4H24.3C23.7961 30.4 23.3128 30.1998 22.9565 29.8435C22.6002 29.4872 22.4 29.0039 22.4 28.5V20.1Z" stroke="black" stroke-width="1.5" stroke-linecap="round" stroke-linejoin="round"/>
<path d="M9.60001 30.4C8.99001 30.4 8.405 30.1577 7.97366 29.7263C7.54233 29.295 7.30002 28.71 7.30002 28.1L8.30002 15.6H11L12 28.1C12.0003 28.4106 11.9377 28.7181 11.8159 29.0039C11.6941 29.2897 11.5157 29.5478 11.2914 29.7628C11.0671 29.9777 10.8016 30.145 10.5109 30.2545C10.2202 30.364 9.91035 30.4135 9.60001 30.4Z" stroke="black" stroke-width="1.5" stroke-linecap="round" stroke-linejoin="round"/>
<path d="M14.1 11.1C13.9379 12.1908 13.3892 13.1871 12.554 13.9073C11.7189 14.6274 10.6528 15.0236 9.55002 15.0236C8.44722 15.0236 7.38112 14.6274 6.54596 13.9073C5.7108 13.1871 5.16216 12.1908 5 11.1H14.1Z" stroke="black" stroke-width="1.5" stroke-linecap="round" stroke-linejoin="round"/>
<path d="M5 2.79999V11.1" stroke="black" stroke-width="1.5" stroke-linecap="round" stroke-linejoin="round"/>
<path d="M9.5 2.79999V10.9" stroke="black" stroke-width="1.5" stroke-linecap="round" stroke-linejoin="round"/>
<path d="M14.1 2.79999V11.1" stroke="black" stroke-width="1.5" stroke-linecap="round" stroke-linejoin="round"/>
</svg>
