<svg width="48" height="48" viewBox="0 0 48 48" fill="none" xmlns="http://www.w3.org/2000/svg">
<path d="M30.9943 29.0056C30.4452 28.4565 29.5548 28.4565 29.0056 29.0056C28.4564 29.5548 28.4564 30.4452 29.0056 30.9944L30.9943 29.0056ZM41.0056 42.9944C41.5548 43.5435 42.4452 43.5435 42.9943 42.9944C43.5435 42.4452 43.5435 41.5548 42.9943 41.0056L41.0056 42.9944ZM20 32.5937C13.0446 32.5937 7.40622 26.9553 7.40622 20H4.59372C4.59372 28.5086 11.4913 35.4062 20 35.4062V32.5937ZM32.5937 20C32.5937 26.9553 26.9553 32.5937 20 32.5937V35.4062C28.5086 35.4062 35.4062 28.5086 35.4062 20H32.5937ZM20 7.40625C26.9553 7.40625 32.5937 13.0447 32.5937 20H35.4062C35.4062 11.4914 28.5086 4.59375 20 4.59375V7.40625ZM20 4.59375C11.4913 4.59375 4.59372 11.4914 4.59372 20H7.40622C7.40622 13.0447 13.0446 7.40625 20 7.40625V4.59375ZM29.0056 30.9944L41.0056 42.9944L42.9943 41.0056L30.9943 29.0056L29.0056 30.9944Z" fill="#000"/>
</svg>
