<?xml version="1.0" standalone="no"?>
<!DOCTYPE svg PUBLIC "-//W3C//DTD SVG 20010904//EN"
 "http://www.w3.org/TR/2001/REC-SVG-20010904/DTD/svg10.dtd">
<svg version="1.0" xmlns="http://www.w3.org/2000/svg"
 width="680.000000pt" height="1020.000000pt" viewBox="0 0 680.000000 1020.000000"
 preserveAspectRatio="xMidYMid meet">

<g transform="translate(0.000000,1020.000000) scale(0.100000,-0.100000)"
fill="#000000" stroke="none">
<path d="M4263 10167 c-19 -28 -23 -47 -23 -114 0 -45 -5 -94 -11 -110 -6 -15
-14 -46 -18 -68 l-7 -40 -23 48 c-26 54 -46 68 -78 56 -27 -10 -73 -97 -73
-139 0 -31 15 -70 31 -81 5 -3 14 -30 20 -60 13 -65 -3 -117 -42 -136 -66 -33
-141 -63 -157 -63 -26 0 -62 -28 -62 -48 0 -10 -13 -33 -28 -52 -16 -19 -38
-56 -50 -81 -32 -66 -56 -85 -90 -73 -43 15 -41 58 7 121 50 66 74 111 67 129
-8 21 -65 41 -156 53 -80 11 -101 20 -96 45 6 27 30 63 57 85 28 22 41 24 177
28 99 2 149 8 154 16 14 22 8 59 -17 106 -13 25 -34 91 -45 145 -11 55 -22
102 -25 105 -14 13 -76 3 -126 -21 -30 -14 -76 -28 -104 -32 -52 -8 -186 -72
-223 -106 -11 -11 -35 -40 -52 -65 -17 -25 -35 -45 -40 -45 -25 0 1 -82 34
-109 26 -22 20 -73 -14 -111 -16 -19 -29 -43 -30 -52 0 -9 -4 -20 -10 -23 -5
-3 -10 -14 -10 -25 0 -18 -19 -30 -47 -30 -12 0 -14 8 -10 38 3 20 9 47 12 58
5 15 1 23 -10 28 -24 9 -51 -9 -85 -58 -16 -25 -37 -52 -47 -61 -22 -22 -7
-69 24 -73 12 -2 26 -9 32 -15 11 -14 3 -97 -10 -97 -4 0 -29 13 -56 29 -61
37 -113 49 -113 27 0 -9 -4 -16 -10 -16 -15 0 -12 -114 5 -193 11 -55 64 -177
85 -197 3 -3 23 -31 45 -64 75 -112 199 -224 332 -301 46 -25 85 -51 89 -56 3
-5 12 -9 20 -9 29 0 97 -69 84 -85 -6 -7 -7 -15 -3 -18 3 -4 -8 -7 -25 -7 -37
0 -192 55 -207 73 -5 6 -30 23 -55 36 -37 21 -111 72 -130 91 -3 3 -19 15 -36
27 -24 17 -34 19 -44 10 -10 -9 -14 -9 -17 1 -3 6 -11 12 -19 12 -14 0 -17
-22 -14 -117 1 -13 1 -42 0 -65 -3 -157 0 -238 15 -331 11 -69 16 -158 15
-254 -4 -381 -2 -524 9 -537 6 -7 8 -15 6 -18 -12 -12 142 6 168 19 15 8 36
11 46 8 10 -3 40 -1 67 5 62 14 298 33 394 31 171 -3 308 -13 348 -27 23 -8
58 -14 76 -14 30 0 96 -25 96 -36 0 -3 -26 -2 -57 2 -106 13 -273 13 -270 0 2
-11 -3 -12 -40 -7 -16 2 -16 3 2 11 13 6 -5 7 -50 3 -38 -3 -122 -7 -185 -8
-135 -2 -267 -17 -365 -40 -78 -18 -211 -45 -265 -52 -19 -3 -44 -13 -55 -23
-11 -10 -47 -25 -80 -34 -33 -8 -78 -25 -100 -36 -21 -11 -49 -20 -61 -20 -12
0 -32 -8 -45 -18 -13 -10 -40 -25 -59 -34 -103 -48 -148 -67 -173 -73 -15 -4
-30 -11 -33 -16 -5 -8 -92 -52 -105 -53 -31 -3 -211 -201 -290 -320 -47 -69
-47 -71 -33 -104 20 -49 19 -52 -28 -52 -55 0 -62 -6 -84 -60 -27 -67 -54
-110 -70 -110 -8 0 -26 7 -39 16 -14 9 -25 15 -25 13 0 -2 -9 -49 -19 -104
-36 -189 -14 -367 65 -543 13 -29 24 -55 24 -57 0 -3 27 -46 60 -97 33 -50 60
-92 60 -93 0 -11 209 -215 259 -252 100 -75 185 -132 197 -133 6 0 19 -9 29
-20 10 -12 24 -19 31 -16 6 2 21 -4 31 -14 11 -10 28 -20 38 -21 22 -5 32 -49
10 -49 -8 0 -15 5 -15 10 0 6 -10 9 -22 9 -17 -1 -19 -2 -5 -6 14 -4 26 -33
12 -33 -5 0 -126 65 -169 91 -17 10 -38 22 -46 26 -8 4 -24 15 -34 25 -11 10
-26 18 -33 18 -8 0 -11 4 -8 10 4 6 -1 7 -12 3 -10 -3 -15 -2 -11 2 5 5 -8 19
-27 32 -40 27 -45 28 -45 9 0 -8 -5 -18 -10 -21 -7 -4 -9 2 -4 19 8 35 -46
114 -69 99 -4 -2 -3 -10 2 -17 15 -18 10 -55 -8 -48 -9 3 -12 1 -7 -6 4 -7 3
-12 -3 -12 -5 0 -13 5 -17 11 -5 8 -9 8 -14 -1 -6 -10 -12 -10 -28 2 -20 14
-20 14 9 27 29 13 31 31 2 31 -9 0 -13 -6 -9 -15 3 -9 0 -15 -10 -15 -8 0 -12
5 -9 10 4 6 1 17 -5 25 -10 11 -10 15 -1 15 7 0 9 5 6 10 -3 6 -14 10 -23 9
-10 0 -12 -3 -5 -6 9 -3 10 -10 3 -23 -6 -10 -6 -21 -1 -24 4 -3 7 -24 5 -46
-2 -22 1 -40 6 -40 6 0 10 7 10 15 0 18 11 19 29 2 11 -9 14 -9 18 1 9 25 24
11 21 -20 -2 -25 -8 -34 -25 -36 -13 -2 -23 -10 -23 -18 0 -8 0 -17 -1 -21 0
-4 4 -9 10 -11 6 -2 11 3 11 12 0 16 18 32 26 23 3 -3 0 -14 -7 -25 -11 -17
-10 -24 2 -39 33 -38 30 -50 -12 -57 -35 -6 -38 -8 -25 -21 19 -19 26 -19 26
0 0 9 9 15 23 14 12 0 16 -3 10 -6 -15 -6 -17 -33 -3 -33 18 0 10 -18 -10 -23
-20 -5 -28 -27 -10 -27 6 0 10 -7 10 -15 0 -8 6 -12 14 -9 11 4 13 0 9 -15 -3
-12 2 -33 12 -47 13 -20 14 -28 4 -40 -7 -8 -20 -12 -30 -9 -21 7 -23 -10 -9
-55 8 -24 8 -23 9 8 1 20 5 31 11 27 6 -4 8 -16 5 -26 -5 -14 0 -26 14 -38 12
-10 21 -28 21 -40 0 -14 9 -25 27 -32 40 -15 63 -39 63 -66 0 -29 -1 -29 -62
2 -60 30 -64 31 -38 5 16 -16 18 -25 10 -40 -9 -17 -8 -20 13 -20 34 0 60 -34
61 -78 1 -28 6 -39 24 -47 12 -6 20 -16 17 -23 -3 -8 -5 -18 -5 -23 0 -6 -5
-7 -11 -4 -6 4 -8 14 -5 22 4 9 1 13 -6 11 -22 -7 -20 -52 2 -76 17 -18 19
-26 10 -37 -7 -8 -19 -15 -26 -15 -8 0 -14 -10 -14 -22 0 -17 2 -20 9 -9 5 8
23 16 40 17 27 3 30 2 22 -14 -5 -9 -9 -30 -9 -45 0 -22 4 -28 17 -24 14 3 17
-4 18 -45 1 -47 0 -48 -18 -32 -12 11 -19 13 -19 5 0 -9 -5 -9 -20 -1 -11 6
-20 20 -20 30 0 11 -4 20 -10 20 -5 0 -10 -4 -10 -10 0 -5 -3 -9 -7 -9 -19 3
-33 -2 -33 -12 0 -6 6 -9 14 -6 13 5 42 -20 41 -38 0 -5 -13 -11 -28 -11 -37
-2 -46 -13 -24 -28 9 -7 17 -21 17 -30 0 -9 5 -16 11 -16 8 0 8 -4 0 -14 -6
-7 -9 -21 -5 -30 4 -11 1 -16 -10 -16 -9 0 -16 -8 -16 -20 0 -16 -5 -19 -30
-13 -23 4 -30 2 -30 -10 0 -9 5 -19 10 -22 6 -3 10 -21 10 -40 0 -19 8 -41 17
-51 13 -13 14 -19 5 -22 -6 -2 -12 -12 -12 -23 0 -11 -7 -19 -16 -19 -9 0 -14
-6 -11 -12 2 -7 10 -13 18 -13 11 0 14 -23 15 -120 0 -79 5 -134 15 -160 16
-45 21 -320 5 -343 -16 -26 -16 -174 0 -237 8 -33 20 -85 25 -115 16 -93 27
-115 65 -136 20 -11 45 -37 57 -59 12 -22 25 -41 30 -43 4 -2 7 -9 7 -16 0 -6
12 -23 28 -38 45 -44 62 -64 62 -75 0 -6 10 -18 22 -27 l23 -17 -24 7 c-29 8
-222 205 -239 244 -6 17 -17 30 -22 30 -6 0 -10 7 -10 15 0 8 -4 15 -9 15 -5
0 -13 9 -16 20 -3 11 -12 20 -20 20 -22 0 -26 -31 -8 -59 10 -14 18 -30 19
-36 1 -12 12 -42 26 -71 9 -19 7 -63 -8 -140 -6 -31 18 -101 39 -115 5 -4 6
-33 2 -65 -5 -50 -3 -67 18 -114 25 -56 45 -140 47 -195 4 -119 6 -143 18
-162 11 -20 10 -23 -4 -23 -9 0 -29 11 -46 25 -16 14 -36 25 -44 25 -8 0 -14
4 -14 9 0 5 -24 17 -53 27 -28 9 -60 23 -70 30 -13 8 -28 9 -45 4 -15 -4 -53
-14 -85 -21 -37 -8 -62 -19 -68 -31 -7 -14 -6 -18 6 -18 21 0 19 -26 -5 -50
-11 -11 -20 -33 -20 -51 0 -29 -2 -31 -27 -25 -62 15 -66 14 -95 -46 -21 -45
-34 -59 -55 -63 -46 -10 -58 -20 -68 -62 -5 -22 -18 -47 -27 -57 -10 -10 -18
-22 -18 -27 0 -14 -62 -49 -87 -49 -17 0 -23 -6 -23 -22 0 -31 -16 -53 -37
-53 -15 0 -18 -8 -17 -57 1 -54 -3 -63 -29 -59 -14 2 -19 -27 -7 -49 9 -18 9
-28 -1 -46 -11 -21 -10 -28 9 -54 12 -16 22 -37 22 -48 0 -10 11 -33 24 -50
18 -25 25 -29 29 -17 4 8 11 15 18 15 6 0 8 -7 5 -16 -7 -19 18 -43 82 -81 23
-14 42 -29 42 -34 0 -14 70 -39 111 -39 21 0 40 -4 43 -9 3 -5 21 -12 40 -15
22 -4 37 -14 41 -26 8 -25 61 -50 127 -60 29 -4 48 -8 42 -9 -6 0 -9 -14 -6
-31 7 -51 -5 -79 -43 -94 -33 -14 -35 -17 -29 -53 8 -55 14 -74 24 -68 4 3 13
-2 20 -10 7 -9 21 -13 31 -10 9 3 21 0 25 -7 8 -13 9 -17 12 -47 2 -12 5 -12
14 -3 19 19 45 14 63 -10 l17 -23 -7 22 c-4 14 -2 23 5 23 6 0 13 -14 17 -30
4 -25 8 -28 20 -19 10 9 17 9 25 1 8 -8 57 -12 148 -11 74 1 127 3 118 6 -14
3 -18 16 -20 51 0 26 -2 53 -2 60 -1 7 -12 18 -25 25 -35 17 -41 42 -8 34 13
-4 39 -2 56 4 l31 11 -21 29 c-11 16 -43 41 -69 54 -27 14 -51 29 -54 34 -4 5
-30 17 -59 25 -104 32 -113 69 -17 70 46 1 65 9 39 18 -18 6 1 54 26 68 32 17
66 7 118 -38 81 -68 159 -109 254 -133 40 -10 86 -25 103 -34 28 -15 30 -14
30 4 0 11 -6 22 -12 25 -10 5 -10 7 0 12 21 10 13 22 -18 29 -17 4 -30 10 -30
14 0 4 -16 13 -35 20 -29 10 -35 17 -35 41 0 34 15 47 35 30 12 -10 15 -10 15
1 0 8 -9 20 -20 27 -26 16 -25 33 1 66 12 15 22 39 24 54 1 15 5 35 9 44 4 9
4 23 0 29 -5 9 -2 10 10 6 26 -10 3 27 -33 52 -38 28 -45 26 -38 -7 9 -43 -6
-56 -56 -53 -19 1 -47 56 -52 99 -1 13 -12 30 -24 38 -15 11 -21 26 -21 52 0
57 -54 230 -87 281 -9 14 -20 42 -24 61 -5 19 -11 49 -15 65 -3 17 -19 46 -34
65 -25 33 -47 80 -37 80 12 0 77 -73 77 -86 0 -9 11 -14 30 -14 19 0 33 -7 40
-20 12 -23 75 -28 83 -7 4 8 6 7 6 -3 1 -16 44 -40 70 -40 14 0 14 -2 1 -11
-13 -9 -13 -10 0 -6 8 2 14 10 13 18 -4 20 36 44 50 30 8 -8 8 -14 0 -22 -9
-9 -8 -16 4 -28 12 -12 17 -13 21 -3 2 6 10 12 17 12 16 0 26 72 11 82 -6 4 3
10 22 14 17 4 32 13 32 20 0 8 -4 14 -9 14 -5 0 -11 8 -13 18 -3 11 10 35 36
63 39 44 44 47 104 52 69 6 92 -6 92 -46 0 -28 47 -60 126 -88 32 -11 73 -34
91 -50 26 -22 43 -29 76 -29 52 1 129 18 137 31 4 6 22 4 48 -5 23 -8 80 -18
128 -22 68 -5 99 -13 141 -36 37 -19 79 -32 126 -37 40 -5 90 -16 112 -24 54
-21 85 -25 285 -41 121 -10 178 -19 195 -30 33 -21 32 -46 0 -46 -14 0 -25 -5
-25 -12 0 -29 112 -102 173 -112 20 -4 45 -15 55 -25 9 -10 27 -22 40 -25 19
-7 22 -4 22 23 0 17 -8 35 -18 43 -11 8 -19 28 -20 53 -2 22 -14 92 -28 155
-28 126 -28 198 0 229 10 11 23 43 29 72 7 29 17 54 24 56 15 5 73 -55 73 -75
0 -6 8 -12 19 -15 16 -4 19 3 24 46 4 28 2 55 -3 61 -4 6 -10 29 -12 51 -3 34
-8 42 -36 56 -41 19 -52 35 -52 77 0 18 -6 35 -14 38 -7 3 -78 -26 -157 -64
-79 -38 -164 -75 -189 -82 -25 -7 -65 -18 -90 -26 -92 -27 -261 -53 -410 -64
-128 -9 -178 -8 -295 5 -77 9 -169 25 -205 35 -36 10 -81 21 -100 25 -153 29
-380 121 -380 154 0 10 7 21 15 25 15 5 122 -33 220 -79 28 -13 76 -28 108
-34 31 -6 65 -15 75 -20 9 -5 94 -17 187 -26 353 -36 675 8 1000 138 109 43
249 129 306 186 19 20 64 63 98 96 42 40 73 81 93 123 26 55 36 66 73 82 24
10 53 28 64 39 12 12 33 21 47 21 25 0 86 -28 92 -42 2 -5 17 -8 32 -8 17 0
35 -8 42 -18 7 -10 40 -31 73 -46 33 -15 67 -34 77 -43 12 -11 18 -12 18 -4 0
7 5 9 10 6 6 -4 8 -15 5 -24 -3 -10 3 -28 15 -41 11 -13 20 -29 20 -35 0 -7 7
-18 15 -25 24 -20 19 -50 -9 -50 -14 0 -28 5 -31 10 -3 6 -29 10 -56 10 -28 0
-60 5 -71 11 -32 17 -50 -8 -20 -28 12 -9 22 -22 22 -29 0 -8 5 -14 10 -14 6
0 10 -6 10 -14 0 -20 34 -29 75 -22 46 9 85 -2 85 -24 0 -10 7 -21 16 -24 23
-9 24 -8 24 13 0 34 11 51 52 73 40 23 43 33 23 81 -5 11 -3 17 7 17 16 0 41
37 33 50 -3 5 11 14 32 19 21 6 56 20 78 31 21 11 47 20 57 20 16 0 18 9 18
68 -1 142 -37 265 -87 295 -7 4 -35 54 -62 110 -42 88 -50 113 -55 183 -7 97
11 183 55 254 16 26 29 59 29 74 0 15 9 36 20 48 18 19 18 23 5 38 -8 9 -15
21 -15 26 0 5 5 2 11 -6 8 -12 9 -10 5 10 -3 14 -6 33 -6 43 0 23 -15 22 -40
-3 -27 -27 -40 -25 -40 5 0 13 -5 37 -11 52 -21 51 -27 68 -32 85 -3 9 -19 19
-36 23 -53 11 -81 41 -81 87 0 22 4 57 9 77 6 20 15 74 20 121 25 196 42 319
55 385 8 39 24 120 35 180 12 61 30 137 40 170 11 33 29 123 41 200 47 303 82
490 98 528 l17 39 32 -31 c38 -36 96 -43 108 -13 16 38 16 85 -1 152 -16 67
-16 71 1 90 17 19 26 20 122 14 125 -8 166 2 239 60 65 53 106 100 149 172 40
66 43 91 16 121 -11 12 -34 51 -50 88 -17 37 -39 74 -49 82 -46 38 -110 74
-156 89 -51 16 -147 56 -176 73 -12 7 -15 28 -14 97 0 75 4 95 24 129 21 36
23 51 22 155 -1 93 2 126 19 170 52 142 118 433 140 619 5 47 23 123 39 170
37 108 48 174 54 331 6 124 15 172 55 283 21 56 22 94 6 159 -11 44 2 76 54
129 47 48 49 49 82 38 19 -7 43 -20 55 -30 11 -11 23 -19 26 -19 5 0 75 -59
112 -95 12 -11 29 -31 38 -45 16 -24 17 -17 17 157 l1 182 -35 7 c-40 7 -71 1
-132 -27 -23 -10 -50 -19 -61 -19 -22 0 -62 40 -62 61 0 8 -6 23 -14 34 -12
18 -28 101 -17 89 7 -7 71 188 65 198 -3 4 0 8 5 8 14 0 14 90 1 126 -6 15
-17 32 -24 38 -7 6 -18 37 -25 69 -15 70 -47 148 -83 204 -30 46 -114 130
-138 138 -8 3 -31 27 -50 52 -55 73 -173 183 -196 183 -6 0 -44 22 -85 48 -41
27 -90 58 -109 70 -33 20 -156 82 -164 82 -2 0 -41 21 -87 47 -75 42 -194 96
-274 125 -16 6 -32 14 -35 17 -3 3 -34 21 -69 39 l-64 32 -431 0 -431 0 -22
-33z m628 -274 c-9 -16 -10 -14 -11 12 0 21 3 26 11 18 8 -8 8 -16 0 -30z
m-314 -108 c3 -9 -1 -23 -9 -33 -8 -9 -20 -43 -27 -74 -7 -31 -21 -68 -33 -83
-21 -27 -87 -65 -112 -65 -8 0 -22 -10 -30 -22 -9 -12 -34 -28 -57 -34 -39
-12 -41 -11 -50 13 -12 33 -11 46 5 68 10 14 11 25 5 38 -15 26 24 95 73 132
75 56 119 75 175 75 39 0 55 -4 60 -15z m-353 -389 c-9 -14 -25 -26 -35 -26
-10 0 -21 -5 -25 -11 -4 -8 -9 -8 -17 0 -8 8 -8 14 1 23 7 7 12 19 12 28 0 21
28 47 55 52 27 5 32 -32 9 -66z m-976 -78 c4 -22 -34 -60 -56 -56 -25 5 -26
34 -2 58 24 24 53 23 58 -2z m872 -11 c0 -31 -51 -50 -66 -25 -8 13 22 38 48
38 10 0 18 -6 18 -13z m-1016 -74 c4 -5 12 -8 18 -8 6 0 16 -8 22 -18 9 -14 7
-21 -6 -31 -10 -7 -15 -15 -13 -18 3 -3 -3 -12 -12 -21 -15 -13 -21 -13 -36
-2 -16 11 -17 18 -6 59 11 45 18 53 33 39z m3 -155 c6 -7 13 -26 17 -42 4 -16
22 -48 41 -71 30 -35 34 -46 28 -78 -3 -20 -11 -41 -18 -47 -36 -30 -114 37
-134 115 -11 43 -10 52 11 108 11 28 39 36 55 15z m644 -560 c58 -17 79 -27
83 -42 7 -27 -1 -36 -30 -36 -16 0 -24 -6 -24 -18 0 -20 -22 -72 -30 -72 -3 0
-12 5 -20 10 -13 8 -12 11 5 24 17 13 18 17 6 40 -11 20 -26 28 -73 37 -62 12
-64 15 -46 54 14 31 30 31 129 3z m-221 -32 c0 -3 -4 -8 -10 -11 -5 -3 -10 -1
-10 4 0 6 5 11 10 11 6 0 10 -2 10 -4z m2258 -214 c10 -7 9 -15 -3 -39 -11
-23 -21 -30 -42 -29 -36 1 -39 18 -7 49 29 29 33 31 52 19z m-1460 -1020 c3
-9 -2 -13 -14 -10 -9 1 -19 9 -22 16 -3 9 2 13 14 10 9 -1 19 -9 22 -16z
m-338 -8 c0 -2 -9 -4 -21 -4 -11 0 -18 4 -14 10 5 8 35 3 35 -6z m411 -39
c-15 -32 -44 -49 -38 -22 3 17 -38 10 -77 -14 -17 -10 -37 -19 -45 -19 -8 0
-23 -7 -32 -16 -17 -16 -19 -15 -28 8 -9 25 -18 28 -106 40 -14 2 -21 -4 -23
-19 -3 -19 1 -23 25 -23 l28 -1 -22 -18 c-15 -13 -19 -21 -11 -29 12 -12 -17
-62 -37 -62 -15 0 -65 -38 -65 -50 0 -9 86 16 105 30 25 19 87 50 100 50 7 0
16 8 19 18 7 20 139 87 154 78 16 -10 -1 -71 -36 -129 -30 -50 -34 -62 -24
-78 16 -25 0 -25 -22 0 -22 24 -42 18 -78 -23 -21 -24 -29 -28 -39 -19 -9 9
-9 17 5 37 9 14 16 28 16 30 0 10 -35 -7 -48 -22 -7 -9 -31 -17 -59 -19 -25
-1 -51 -7 -57 -14 -8 -9 4 -10 52 -5 51 5 62 3 62 -9 0 -15 -12 -18 -66 -15
-18 1 -35 -4 -40 -11 -5 -9 -1 -11 13 -7 12 3 27 2 34 -3 15 -9 14 -10 -39
-14 -18 -1 -39 -11 -47 -21 -15 -20 -19 -13 -16 31 1 18 0 18 -11 -2 -6 -13
-15 -23 -20 -23 -5 0 -7 -4 -3 -9 3 -5 -11 -15 -30 -21 -56 -19 -49 -28 18
-23 54 5 64 3 81 -16 21 -24 19 -25 -18 -11 -31 12 -59 3 -52 -17 3 -8 2 -11
-3 -8 -5 3 -21 0 -36 -7 -15 -7 -21 -14 -14 -18 6 -4 -13 -11 -43 -15 l-53 -7
40 -19 40 -18 -30 -2 c-51 -3 -54 -4 -67 -17 -6 -6 -20 -12 -30 -12 -10 0 -18
-5 -18 -11 0 -6 8 -8 19 -4 10 3 29 1 42 -4 23 -9 23 -10 -6 -10 -17 -1 -35
-5 -40 -10 -6 -5 -21 -11 -35 -14 -23 -4 -22 -4 5 -6 17 -1 37 -6 45 -12 11
-7 2 -9 -35 -8 -69 1 -75 0 -75 -11 0 -5 3 -9 8 -9 18 3 32 -2 32 -11 0 -5 -6
-10 -14 -10 -8 0 -28 -14 -45 -31 -17 -17 -35 -28 -41 -24 -5 3 -10 1 -10 -4
0 -6 -5 -11 -11 -11 -7 0 -17 -7 -24 -17 -19 -25 -45 -9 -47 29 -4 95 43 222
175 474 54 103 107 177 155 218 39 32 51 37 79 33 27 -5 36 -2 49 18 9 15 30
27 50 31 19 3 37 10 40 15 7 11 54 12 54 1 0 -5 56 -12 125 -15 113 -6 130 -5
162 13 46 25 55 19 34 -25z m143 9 c9 -23 2 -28 -29 -20 -14 4 -25 13 -25 21
0 21 46 19 54 -1z m106 -35 c12 -7 11 -8 -6 -9 -11 0 -29 7 -40 16 -18 14 -18
15 6 8 14 -3 32 -10 40 -15z m-490 -38 c0 -24 -45 -79 -56 -68 -5 4 -3 17 4
28 7 11 10 24 7 29 -3 5 3 13 12 19 26 15 33 13 33 -8z m485 -21 c64 -10 111
-25 142 -46 30 -19 75 -12 67 11 -4 8 -12 15 -20 15 -8 0 -14 5 -14 10 0 15
26 12 39 -4 6 -8 24 -16 39 -19 41 -8 99 -31 119 -48 10 -9 32 -21 50 -28 17
-7 34 -19 37 -26 3 -8 13 -11 26 -8 13 4 29 -2 43 -14 12 -12 69 -51 127 -89
58 -38 106 -72 108 -76 2 -4 19 -15 38 -24 19 -9 34 -20 34 -26 0 -5 28 -39
63 -76 80 -85 165 -202 196 -267 13 -27 29 -61 36 -75 27 -55 64 -169 76 -235
14 -76 16 -261 4 -310 -7 -26 -11 -53 -14 -77 -1 -5 -9 -8 -18 -8 -12 0 -14
-3 -7 -8 19 -11 21 -55 4 -59 -13 -4 -13 -3 0 6 13 9 12 11 -4 11 -13 0 -16
-5 -12 -16 4 -9 1 -24 -6 -32 -10 -12 -10 -14 0 -8 7 4 12 2 12 -6 0 -13 -30
-77 -49 -108 -5 -8 -13 -24 -16 -35 l-7 -20 -8 20 c-7 18 -8 17 -15 -10 -12
-54 -26 -82 -51 -104 -13 -11 -28 -21 -32 -21 -5 0 -15 -11 -22 -25 -7 -13
-17 -22 -22 -19 -4 3 -8 -2 -8 -10 0 -9 -7 -16 -16 -16 -8 0 -12 -4 -9 -10 3
-5 1 -10 -4 -10 -13 0 -14 16 -2 38 5 9 12 34 15 54 8 53 34 103 59 114 28 12
69 90 62 118 -2 11 -2 15 1 8 8 -17 33 15 34 42 0 17 -2 17 -20 -4 -25 -29
-25 -23 -1 37 10 26 22 66 26 88 4 22 12 49 18 60 12 23 16 97 5 105 -4 4 -9
24 -11 45 -3 22 -14 73 -26 114 -13 41 -24 81 -26 90 -16 78 -52 183 -81 240
-7 14 -11 28 -8 33 3 4 1 8 -4 8 -5 0 -32 30 -60 68 -28 37 -76 92 -106 122
-37 35 -60 68 -66 92 -7 23 -18 39 -32 44 -11 3 -56 33 -98 65 -42 33 -81 59
-86 59 -14 1 -54 37 -54 49 0 6 -9 11 -20 11 -11 0 -20 5 -20 10 0 6 -8 10
-18 10 -11 0 -27 9 -37 20 -26 29 -26 29 97 -24 20 -9 41 -16 47 -16 6 0 15
-9 21 -20 6 -11 17 -20 24 -20 17 0 82 -49 142 -107 24 -23 44 -36 44 -28 0
14 -107 125 -121 125 -5 0 -51 28 -102 63 -97 66 -127 82 -165 90 -19 5 -23 2
-19 -12 3 -14 -1 -16 -25 -13 -37 6 -47 22 -12 22 26 0 27 0 9 20 -21 24 -51
26 -59 5 -6 -17 -47 -20 -63 -4 -8 8 -17 5 -32 -10 -17 -17 -18 -21 -5 -21 28
0 -6 -40 -49 -57 -34 -14 -40 -14 -63 2 l-26 17 22 15 c12 8 33 18 48 22 43
12 38 36 -14 65 -25 14 -54 26 -63 26 -9 0 -34 9 -56 20 -36 18 -37 19 -10 14
17 -3 53 -9 80 -14z m152 4 c-3 -3 -12 -4 -19 -1 -8 3 -5 6 6 6 11 1 17 -2 13
-5z m-1738 -130 c26 -24 26 -24 3 -24 -12 0 -22 5 -22 10 0 6 -4 10 -9 10 -16
0 -19 -63 -4 -97 18 -44 23 -42 12 5 -13 54 -12 55 25 48 23 -4 35 -3 38 6 3
8 17 2 43 -18 21 -16 47 -28 57 -26 12 2 18 -3 18 -16 0 -23 35 -56 50 -47 6
4 16 -8 25 -28 7 -18 21 -39 29 -47 9 -7 16 -23 16 -36 0 -13 4 -24 10 -24 5
0 12 -17 16 -37 4 -21 12 -47 19 -58 15 -25 39 -128 33 -145 -2 -6 -17 15 -33
49 -17 33 -35 61 -42 61 -6 0 -13 12 -15 28 -2 15 -7 25 -12 22 -5 -3 -15 11
-21 30 l-12 35 -8 -34 c-5 -26 -3 -39 12 -60 19 -25 63 -136 63 -158 0 -7 -6
-14 -12 -16 -7 -2 -1 -3 14 -1 40 5 42 -11 3 -25 -23 -8 -40 -9 -53 -2 -15 8
-75 9 -117 2 -5 -1 1 -8 15 -16 l25 -14 -30 -1 c-35 0 -62 -14 -47 -24 6 -4
-10 -27 -38 -56 -26 -27 -45 -51 -42 -55 3 -3 -3 -8 -15 -11 -12 -3 -24 -12
-27 -20 -4 -11 5 -14 36 -14 23 0 49 -7 57 -14 13 -12 26 -13 56 -6 22 5 41
14 43 19 5 14 25 14 40 -1 9 -9 3 -19 -23 -45 -33 -32 -53 -43 -40 -23 3 6 1
10 -6 10 -8 0 -8 4 1 15 14 16 8 18 -28 9 -16 -5 -21 -12 -18 -23 5 -13 4 -13
-8 2 -16 21 -36 22 -36 2 0 -9 -6 -12 -15 -9 -11 5 -15 -1 -15 -20 0 -15 -6
-26 -14 -26 -7 0 -25 -9 -40 -21 -26 -20 -28 -20 -62 -4 -20 9 -37 15 -38 13
-1 -1 -8 -16 -15 -33 -13 -33 -65 -95 -80 -95 -5 0 -14 12 -19 28 l-10 27 -1
-27 c-1 -16 -4 -27 -9 -25 -4 1 -30 -21 -58 -49 -41 -41 -53 -48 -67 -40 -24
15 -39 -4 -40 -54 -1 -37 -2 -40 -14 -24 -12 16 -13 14 -13 -15 0 -18 -4 -30
-9 -27 -24 15 38 158 80 183 29 17 38 33 20 33 -6 0 -13 -4 -16 -10 -3 -5 -21
-10 -39 -10 -21 0 -43 -9 -59 -24 -33 -31 -43 -17 -21 26 15 31 15 32 -1 17
-18 -18 -22 -48 -10 -89 6 -24 6 -25 -10 -5 -21 26 -14 97 14 151 12 21 21 44
21 50 0 6 18 27 40 48 37 34 40 40 34 74 -6 37 -4 39 82 117 91 83 103 92 172
125 42 21 61 57 23 45 -11 -3 -22 -1 -26 5 -3 5 -17 10 -31 10 -14 0 -27 7
-30 15 -4 10 -21 15 -53 15 l-46 0 30 16 c22 11 35 13 53 5 28 -13 82 -14 82
-2 0 13 -84 22 -137 14 -34 -4 -44 -3 -39 5 8 13 -22 17 -81 13 -18 -1 -33 3
-33 9 0 6 26 10 64 10 35 0 72 3 82 7 13 5 16 3 11 -10 -7 -19 8 -23 19 -6 8
13 -15 30 -36 27 -8 -2 -20 0 -26 4 -5 4 -28 3 -50 -2 -40 -10 -69 -5 -92 13
-11 8 -11 12 0 18 9 6 7 8 -7 8 -53 1 -110 17 -109 31 1 11 -14 16 -60 18 -69
4 -81 11 -95 55 -21 70 -23 97 -7 97 9 0 17 -13 21 -33 6 -31 44 -87 58 -87 3
0 18 12 32 26 25 24 52 28 48 6 -2 -6 19 -14 45 -17 78 -11 85 -14 67 -31 -8
-9 -15 -16 -15 -17 0 -1 39 -2 88 -2 48 0 107 -6 132 -14 113 -34 146 -46 161
-58 8 -7 22 -13 30 -13 8 0 39 -16 69 -35 30 -19 62 -35 71 -35 9 0 29 -11 45
-25 16 -14 35 -25 42 -25 6 0 12 -4 12 -10 0 -5 4 -10 9 -10 15 0 -13 50 -31
56 -10 3 -18 12 -18 19 0 8 -14 29 -31 47 -32 35 -79 118 -79 141 0 7 -6 19
-12 25 -19 19 -62 274 -50 287 7 6 42 -14 71 -41z m1001 -204 c0 -5 -9 -10
-21 -10 -11 0 -17 5 -14 10 3 6 13 10 21 10 8 0 14 -4 14 -10z m95 -13 c-6
-15 -53 -33 -62 -23 -9 9 8 26 27 26 10 0 22 5 25 11 10 15 17 5 10 -14z m-92
-43 c3 -4 0 -13 -8 -20 -16 -16 -55 -19 -55 -4 0 6 9 10 20 10 11 0 20 5 20
10 0 11 13 13 23 4z m-61 -76 c-6 -6 -15 -8 -19 -4 -4 4 -1 11 7 16 19 12 27
3 12 -12z m-692 -48 c0 -5 -4 -10 -10 -10 -5 0 -10 5 -10 10 0 6 5 10 10 10 6
0 10 -4 10 -10z m1511 -30 c10 0 12 -44 3 -77 -4 -15 -14 -23 -28 -23 -29 0
-63 24 -48 34 7 4 12 17 12 30 0 27 20 48 38 41 8 -3 18 -5 23 -5z m-1036 -10
c-3 -5 -12 -10 -18 -10 -7 0 -6 4 3 10 19 12 23 12 15 0z m1278 -101 c32 -9
37 -14 37 -39 0 -17 -1 -30 -2 -30 -2 0 -29 11 -60 23 -53 22 -56 25 -40 40
19 20 17 20 65 6z m-1283 -39 c0 -5 -5 -10 -11 -10 -5 0 -7 5 -4 10 3 6 8 10
11 10 2 0 4 -4 4 -10z m55 -6 c13 -14 22 -14 68 -3 61 15 131 13 159 -4 16
-10 22 -9 35 8 15 19 15 19 10 -5 -5 -17 0 -32 16 -49 18 -19 19 -23 5 -18
-12 4 -18 1 -18 -8 0 -17 -16 -20 -25 -5 -10 16 -25 11 -18 -6 5 -13 2 -15
-13 -10 -13 4 -24 -1 -34 -15 -26 -37 -93 -76 -145 -85 l-50 -8 40 -7 40 -6
-49 -2 c-27 0 -46 2 -43 6 4 3 0 15 -10 25 -9 10 -14 20 -11 23 8 8 51 7 77
-1 21 -6 23 -5 19 14 -7 26 -1 28 22 7 15 -14 18 -14 30 1 11 13 11 17 1 24
-8 4 -10 13 -7 19 5 7 -2 11 -16 12 -13 1 -6 5 17 9 22 4 41 4 43 -1 2 -5 8
-9 14 -9 6 0 4 8 -5 18 -10 10 -17 28 -17 39 0 29 -8 33 -38 17 -15 -8 -32
-14 -39 -14 -40 0 -113 -23 -113 -36 0 -8 -7 -14 -15 -14 -20 0 -35 -32 -28
-60 6 -22 4 -23 -28 -16 l-34 6 30 -19 c23 -16 25 -20 10 -19 -11 0 -27 -1
-35 -3 -10 -3 -15 3 -14 19 0 12 -4 22 -9 22 -5 0 6 18 24 41 21 27 52 49 91
66 52 23 75 43 48 43 -5 0 -10 5 -10 10 0 14 6 13 25 -6z m-1095 -4 c0 -5 -9
-10 -21 -10 -11 0 -17 5 -14 10 3 6 13 10 21 10 8 0 14 -4 14 -10z m668 -64
c17 -6 32 -14 32 -19 0 -10 -54 3 -58 15 -2 4 -10 8 -17 8 -8 0 -17 5 -21 12
-5 8 -2 9 12 3 10 -4 34 -13 52 -19z m-218 -6 c0 -5 -2 -10 -4 -10 -3 0 -8 5
-11 10 -3 6 -1 10 4 10 6 0 11 -4 11 -10z m325 -1 c12 -19 -5 -23 -22 -6 -16
16 -16 17 -1 17 9 0 20 -5 23 -11z m1528 -29 c14 -11 35 -20 46 -20 14 0 21 6
21 20 0 26 12 25 37 -2 25 -27 39 -68 24 -68 -16 0 -13 -26 4 -40 8 -7 12 -17
8 -23 -7 -11 -14 -76 -13 -119 0 -26 -2 -28 -41 -28 -32 0 -40 3 -36 15 4 8 2
17 -4 20 -5 4 -7 10 -4 15 3 4 -2 10 -10 13 -7 3 -17 22 -21 42 -3 19 -10 38
-15 40 -4 3 -6 12 -3 19 3 7 -2 16 -11 20 -10 4 -15 17 -14 38 0 18 -2 43 -6
56 -9 27 4 28 38 2z m-272 -14 c20 -8 53 -36 74 -61 34 -42 40 -58 44 -127 1
-10 8 -18 16 -18 16 0 20 -12 8 -23 -3 -4 -15 0 -25 10 -16 14 -18 14 -18 1 0
-9 -7 -21 -15 -28 -12 -10 -15 -9 -15 4 0 10 -4 14 -10 11 -20 -12 -10 24 11
38 32 23 33 73 1 113 -15 19 -31 34 -36 34 -11 0 2 -102 15 -114 15 -16 10
-26 -14 -26 -23 0 -23 3 -23 81 l1 82 -63 17 c-54 15 -64 15 -69 4 -4 -10 -20
-14 -57 -12 l-51 3 -3 -40 c-2 -22 -8 -44 -15 -50 -7 -5 -12 -16 -12 -24 0 -8
-6 -16 -12 -18 -8 -3 -13 4 -13 16 0 26 -12 27 -28 1 -15 -24 -30 -26 -38 -5
-4 9 4 23 17 35 13 10 18 19 12 20 -22 0 -14 25 15 46 27 20 68 38 107 48 36
9 159 -2 196 -18z m-2701 -47 c0 -15 -8 -19 -37 -21 -49 -2 -85 -4 -100 -6 -7
-1 -24 -27 -38 -57 -35 -73 -50 -88 -77 -74 -25 13 -40 1 -15 -12 10 -6 32
-26 49 -45 18 -19 38 -33 46 -32 8 2 28 30 46 63 27 51 36 60 61 63 100 8 115
13 115 35 0 12 -9 37 -20 55 l-20 32 25 12 c14 6 25 17 25 24 0 13 57 30 67
21 10 -11 -8 -26 -38 -32 -31 -7 -36 -30 -6 -30 9 0 24 -8 34 -17 14 -15 15
-21 5 -44 -7 -14 -21 -28 -32 -31 -15 -4 -17 -9 -9 -30 19 -50 15 -53 -70 -53
l-80 0 -32 -61 c-18 -34 -39 -63 -46 -66 -18 -7 -49 22 -79 74 -28 46 -60 67
-51 32 3 -12 -1 -27 -11 -37 -14 -14 -17 -36 -16 -112 0 -52 4 -124 7 -160 l7
-65 -26 75 c-30 89 -40 219 -29 365 7 95 8 99 24 80 9 -11 29 -31 44 -44 l26
-24 38 79 39 79 59 3 c33 2 65 8 70 13 13 13 45 -25 45 -52z m1133 24 c-3 -7
-10 -10 -16 -6 -6 4 -8 -2 -5 -15 5 -18 1 -23 -20 -28 -15 -4 -33 -11 -40 -17
-7 -5 -16 -7 -19 -3 -10 10 67 82 88 82 9 0 15 -6 12 -13z m147 7 c8 -5 11
-10 5 -10 -5 0 -17 5 -25 10 -8 5 -10 10 -5 10 6 0 17 -5 25 -10z m-186 -105
c-10 -8 -23 -14 -29 -14 -5 0 -1 6 9 14 11 8 24 15 30 15 5 0 1 -7 -10 -15z
m1401 -45 c10 -11 24 -20 32 -20 21 0 15 -28 -7 -35 -42 -13 -78 21 -63 61 7
19 17 18 38 -6z m-2328 -173 l6 -37 -80 0 c-75 0 -80 -1 -91 -24 -6 -14 -23
-43 -37 -66 -25 -40 -26 -40 -54 -25 -16 8 -34 28 -39 45 -12 34 -7 38 20 13
17 -15 19 -15 33 3 8 10 25 38 37 62 12 23 26 43 32 43 17 2 57 5 104 7 32 2
42 6 42 19 0 30 20 -1 27 -40z m793 -82 c-7 -8 -17 -15 -22 -15 -6 0 -5 7 2
15 7 8 17 15 22 15 6 0 5 -7 -2 -15z m-160 -56 c0 -5 -6 -9 -13 -9 -7 0 -23
-9 -36 -21 -29 -27 -36 -19 -15 18 13 23 23 29 41 25 13 -2 23 -8 23 -13z
m-554 -6 c-2 -33 -23 -43 -90 -43 -54 0 -69 -4 -86 -22 -11 -12 -20 -25 -20
-30 0 -4 -6 -5 -14 -2 -10 4 -8 16 12 54 l25 49 81 4 c45 1 84 4 87 5 4 1 6
-6 5 -15z m1954 -33 c0 -5 -7 -10 -15 -10 -8 0 -15 5 -15 10 0 6 7 10 15 10 8
0 15 -4 15 -10z m-1842 -24 c4 -21 -29 -49 -42 -36 -12 12 13 62 28 57 6 -2
13 -11 14 -21z m3479 -8 c-3 -7 -5 -2 -5 12 0 14 2 19 5 13 2 -7 2 -19 0 -25z
m-1677 -18 c0 -5 -7 -10 -16 -10 -8 0 -12 5 -9 10 3 6 10 10 16 10 5 0 9 -4 9
-10z m-1777 -17 c-7 -2 -19 -2 -25 0 -7 3 -2 5 12 5 14 0 19 -2 13 -5z m141
-19 c3 -8 2 -12 -4 -9 -6 3 -10 10 -10 16 0 14 7 11 14 -7z m1545 2 c-2 -1
-19 -8 -36 -14 -37 -12 -45 -6 -10 8 22 9 54 13 46 6z m-1712 -22 c-3 -3 -12
-4 -19 -1 -8 3 -5 6 6 6 11 1 17 -2 13 -5z m3460 -26 c-3 -8 -6 -5 -6 6 -1 11
2 17 5 13 3 -3 4 -12 1 -19z m-4089 -13 c-3 -3 -9 2 -12 12 -6 14 -5 15 5 6 7
-7 10 -15 7 -18z m2099 19 c-3 -3 -12 -4 -19 -1 -8 3 -5 6 6 6 11 1 17 -2 13
-5z m140 -20 c-3 -3 -12 -4 -19 -1 -8 3 -5 6 6 6 11 1 17 -2 13 -5z m1832 -65
c-6 -30 -16 -59 -21 -66 -5 -7 -7 -17 -3 -23 3 -5 2 -10 -3 -10 -5 0 -35 -46
-66 -102 -102 -183 -237 -337 -378 -431 -35 -23 -75 -47 -90 -54 -14 -6 -48
-28 -75 -49 -62 -48 -236 -132 -288 -139 -22 -4 -47 -14 -55 -24 -23 -26 -79
-51 -115 -51 -18 0 -49 -11 -71 -27 -31 -21 -52 -26 -103 -28 -48 -1 -65 -5
-73 -18 -6 -11 -22 -17 -46 -17 -21 0 -43 -5 -48 -10 -34 -34 -368 -61 -669
-53 -212 5 -223 6 -205 27 9 12 7 21 -7 42 l-17 27 -7 -24 c-3 -13 -1 -30 4
-37 5 -7 8 -15 5 -17 -5 -6 -186 13 -228 23 -17 4 -1 9 53 16 42 5 77 13 77
18 0 4 -9 8 -21 8 -13 0 -23 8 -26 21 -4 15 -11 19 -27 15 -12 -3 -58 3 -102
13 -43 11 -101 23 -129 26 -27 4 -61 12 -75 18 -14 5 -34 11 -45 12 -62 9 -90
19 -105 37 -11 15 -21 18 -31 12 -22 -13 -62 -5 -81 17 -11 13 -29 19 -55 19
-22 0 -61 11 -89 25 -60 31 -89 33 -55 5 14 -12 18 -20 10 -20 -8 0 -27 11
-44 25 -16 14 -22 22 -13 19 13 -4 15 -1 11 17 -4 13 -8 18 -10 12 -8 -22 -30
9 -25 33 4 20 6 21 30 8 45 -24 140 -64 151 -64 6 0 11 -4 11 -10 0 -5 8 -10
18 -10 9 0 26 -7 36 -15 10 -8 23 -12 29 -8 6 3 7 1 3 -5 -5 -8 1 -11 16 -10
13 1 55 -8 93 -20 127 -38 223 -62 249 -62 15 0 34 -4 44 -9 9 -6 49 -14 87
-20 39 -5 95 -15 125 -20 30 -6 99 -14 153 -17 81 -5 97 -9 95 -21 -2 -9 3
-18 10 -20 7 -3 12 4 12 15 0 19 7 20 163 20 182 0 315 7 324 16 4 3 19 6 34
6 83 0 542 101 606 133 15 8 42 17 58 21 28 7 100 36 191 77 22 11 46 19 52
19 7 0 12 5 12 10 0 6 4 10 9 10 5 0 22 5 38 12 32 13 28 12 71 22 17 4 32 12
32 18 0 6 3 9 6 5 3 -3 19 8 35 24 15 16 32 29 37 29 5 0 17 9 27 20 10 11 24
20 32 20 7 0 16 6 19 14 3 8 12 12 19 10 15 -6 192 162 187 178 -1 5 2 7 7 3
6 -3 18 7 28 22 9 15 26 38 38 50 27 29 133 241 150 301 13 44 15 15 4 -39z
m-975 26 c-25 -19 -40 -19 -24 0 7 8 20 15 28 15 13 0 12 -3 -4 -15z m-86 -80
c-3 -3 -9 2 -12 12 -6 14 -5 15 5 6 7 -7 10 -15 7 -18z m-28 -5 c0 -5 -5 -10
-11 -10 -5 0 -7 5 -4 10 3 6 8 10 11 10 2 0 4 -4 4 -10z m-73 -126 c3 -9 -3
-24 -16 -35 -32 -30 -47 -18 -16 13 23 24 24 27 8 31 -17 4 -17 5 0 6 10 0 20
-6 24 -15z m-1897 -54 c0 -5 -7 -10 -16 -10 -8 0 -12 5 -9 10 3 6 10 10 16 10
5 0 9 -4 9 -10z m1007 -40 c0 -23 -4 -29 -14 -25 -8 3 -22 5 -31 5 -12 1 -9 7
13 25 17 14 30 25 31 25 0 0 1 -14 1 -30z m827 15 c-7 -17 -54 -21 -54 -4 0 6
8 8 19 4 11 -3 22 -1 26 5 9 15 15 12 9 -5z m-1839 -19 c20 -21 55 -74 55 -84
0 -12 -50 -62 -63 -62 -5 0 -7 9 -4 20 3 11 1 23 -4 26 -5 3 -9 15 -9 28 0 24
-52 81 -64 69 -4 -4 -4 0 0 10 5 14 13 16 42 11 20 -4 41 -12 47 -18z m1792
-12 c-3 -3 -12 -4 -19 -1 -8 3 -5 6 6 6 11 1 17 -2 13 -5z m-1112 -34 c3 -5
-1 -10 -9 -10 -9 0 -16 5 -16 10 0 6 4 10 9 10 6 0 13 -4 16 -10z m35 -36 c0
-4 -12 -18 -26 -31 -19 -17 -24 -30 -20 -46 3 -12 6 -31 7 -42 1 -13 4 -9 8
10 7 34 37 46 44 18 4 -16 6 -16 12 3 4 12 21 32 37 44 24 18 30 19 25 7 -4
-11 3 -26 20 -42 32 -29 27 -40 -9 -21 -14 8 -30 11 -35 7 -12 -7 -44 -64 -58
-104 -10 -26 -11 -27 -33 -11 -30 21 -52 76 -52 132 0 28 -6 52 -17 64 -15 17
-14 18 40 18 32 0 57 -3 57 -6z m889 -58 c-13 -13 -28 -22 -34 -20 -6 3 -25 0
-41 -6 -42 -16 -23 -1 33 25 62 30 70 30 42 1z m-756 -73 c-7 -2 -21 -2 -30 0
-10 3 -4 5 12 5 17 0 24 -2 18 -5z m-1608 -51 c-7 -8 -35 7 -35 18 0 6 7 6 20
-2 10 -7 17 -14 15 -16z m-1 -33 c-2 -4 0 -11 6 -14 6 -4 8 -15 5 -26 -4 -11
2 -31 15 -49 15 -21 17 -30 8 -30 -13 0 -51 68 -47 86 4 21 -2 34 -15 34 -8 0
-16 6 -19 14 -5 11 0 12 23 3 16 -6 27 -14 24 -18z m548 17 c10 -7 15 -16 11
-20 -4 -4 0 -4 10 0 10 3 17 1 17 -5 0 -6 -14 -11 -30 -11 -18 0 -33 -6 -36
-15 -8 -20 -27 -19 -48 4 -13 15 -14 20 -4 24 9 4 8 6 -3 6 -9 1 -22 8 -29 16
-11 13 -5 15 41 15 30 0 62 -7 71 -14z m125 -22 c-3 -3 -12 -4 -19 -1 -8 3 -5
6 6 6 11 1 17 -2 13 -5z m2430 -10 c-3 -3 -12 -4 -19 -1 -8 3 -5 6 6 6 11 1
17 -2 13 -5z m-3110 -140 c-3 -3 -12 -4 -19 -1 -8 3 -5 6 6 6 11 1 17 -2 13
-5z m143 -30 c0 -2 -9 -4 -20 -4 -11 0 -20 4 -20 9 0 5 9 7 20 4 11 -3 20 -7
20 -9z m1805 -14 c4 -6 -6 -10 -24 -10 -16 0 -38 -3 -48 -6 -16 -5 -16 -4 1
10 22 18 62 21 71 6z m-5 -30 c0 -6 -13 -13 -28 -16 -17 -4 -36 -18 -46 -35
-11 -19 -25 -29 -41 -29 -31 0 -40 16 -22 35 9 8 17 19 19 25 3 9 30 16 111
29 4 0 7 -4 7 -9z m-1955 -10 c-3 -5 -11 -10 -16 -10 -6 0 -7 5 -4 10 3 6 11
10 16 10 6 0 7 -4 4 -10z m169 -22 c21 -41 20 -46 -2 -22 -10 11 -19 27 -19
37 0 24 3 22 21 -15z m3409 -16 c-3 -12 -9 -22 -14 -22 -12 0 -11 7 2 32 13
25 20 19 12 -10z m-3538 -42 c3 -5 2 -10 -4 -10 -5 0 -13 5 -16 10 -3 6 -2 10
4 10 5 0 13 -4 16 -10z m17 -42 c-7 -7 -12 -8 -12 -2 0 14 12 26 19 19 2 -3
-1 -11 -7 -17z m-46 -33 c1 -8 -2 -13 -7 -9 -5 3 -9 12 -9 21 0 19 13 9 16
-12z m64 -48 c0 -20 0 -20 -15 -1 -12 16 -14 16 -15 3 0 -9 7 -22 15 -29 16
-13 21 -50 7 -50 -13 0 -32 47 -32 80 0 23 3 27 20 23 12 -3 20 -14 20 -26z
m1128 -16 c11 -6 10 -10 -4 -15 -10 -4 -24 0 -33 9 -14 13 -13 15 4 15 11 0
26 -4 33 -9z m-1059 -123 c12 -15 11 -18 -3 -18 -10 0 -16 8 -16 22 0 12 1 19
3 17 1 -2 9 -12 16 -21z m-84 -37 c7 -12 -12 -24 -25 -16 -11 7 -4 25 10 25 5
0 11 -4 15 -9z m145 -87 c0 -16 -54 49 -57 68 -2 15 5 9 27 -20 16 -23 30 -45
30 -48z m-6 70 c3 -8 2 -12 -4 -9 -6 3 -10 10 -10 16 0 14 7 11 14 -7z m-74
-9 c0 -8 2 -20 5 -28 9 -22 -33 -14 -50 10 -8 11 -12 23 -9 25 10 11 54 5 54
-7z m40 -56 c0 -6 -4 -7 -10 -4 -5 3 -10 11 -10 16 0 6 5 7 10 4 6 -3 10 -11
10 -16z m-42 -18 c3 -8 -1 -12 -9 -9 -7 2 -15 10 -17 17 -3 8 1 12 9 9 7 -2
15 -10 17 -17z m62 -41 c0 -5 -4 -10 -10 -10 -5 0 -10 5 -10 10 0 6 5 10 10
10 6 0 10 -4 10 -10z m-60 -90 c0 -5 -4 -10 -10 -10 -5 0 -10 5 -10 10 0 6 5
10 10 10 6 0 10 -4 10 -10z m13 -290 c-3 -11 -9 -20 -15 -20 -5 0 -4 9 2 20 6
11 12 20 14 20 2 0 2 -9 -1 -20z m-13 -144 c0 -3 -4 -8 -10 -11 -5 -3 -10 -1
-10 4 0 6 5 11 10 11 6 0 10 -2 10 -4z m3454 -532 c9 -3 14 -10 11 -14 -6 -10
-45 -1 -45 11 0 10 12 11 34 3z m-3194 -1114 c0 -5 -2 -10 -4 -10 -3 0 -8 5
-11 10 -3 6 -1 10 4 10 6 0 11 -4 11 -10z m42 -25 c0 -5 -5 -11 -11 -13 -6 -2
-11 4 -11 13 0 9 5 15 11 13 6 -2 11 -8 11 -13z m-85 -256 c4 -30 -19 -65 -35
-55 -15 9 -15 41 -1 67 13 26 32 20 36 -12z m-461 -225 c-5 -14 -1 -16 23 -11
34 7 45 -4 36 -33 -4 -14 -15 -20 -36 -20 -30 0 -36 -9 -18 -27 13 -13 8 -54
-6 -54 -9 1 -12 12 -18 71 -2 14 -7 33 -11 43 -5 10 -3 23 4 32 17 20 34 19
26 -1z m630 -229 c-15 -8 -33 -12 -38 -9 -14 9 12 24 42 24 l25 0 -29 -15z
m-726 -25 c0 -18 -5 -30 -13 -30 -9 0 -12 -10 -9 -30 3 -21 0 -30 -9 -30 -19
0 -42 37 -28 45 6 5 5 11 -5 18 -17 13 -11 28 19 45 33 19 45 14 45 -18z
m1540 20 c0 -5 -7 -10 -15 -10 -8 0 -15 5 -15 10 0 6 7 10 15 10 8 0 15 -4 15
-10z m-825 -30 c3 -5 -1 -10 -10 -10 -9 0 -13 5 -10 10 3 6 8 10 10 10 2 0 7
-4 10 -10z m-870 -45 c0 -17 -6 -19 -34 -17 -34 4 -34 4 -28 -33 5 -30 3 -36
-9 -31 -9 3 -20 6 -25 6 -18 0 -8 39 17 70 31 37 79 40 79 5z m-60 -184 c9
-16 -30 -32 -43 -19 -7 7 -12 16 -12 20 0 11 48 10 55 -1z m-115 -33 c0 -29
-44 -52 -71 -38 -22 12 -16 34 14 48 37 18 57 14 57 -10z m121 -11 c-10 -9
-11 -8 -5 6 3 10 9 15 12 12 3 -3 0 -11 -7 -18z m-211 -253 c0 -8 -4 -12 -10
-9 -5 3 -10 10 -10 16 0 5 5 9 10 9 6 0 10 -7 10 -16z m550 -633 c0 -10 -30
-24 -37 -17 -3 3 -2 9 2 15 8 13 35 15 35 2z"/>
<path d="M3970 7161 c-7 -14 -6 -21 2 -23 8 -3 4 -15 -11 -37 -16 -22 -28 -30
-41 -26 -11 4 -23 -3 -34 -19 -19 -30 -22 -48 -3 -22 14 19 54 18 50 -1 -1 -6
-4 -23 -7 -38 -3 -15 -10 -33 -17 -41 -6 -8 -7 -14 -2 -14 16 0 39 33 41 58 1
27 28 72 42 72 6 0 10 7 10 16 0 9 7 22 16 29 12 8 15 20 10 38 -8 32 -40 36
-56 8z"/>
<path d="M4286 7091 c-4 -6 -21 -15 -39 -19 -24 -7 -31 -14 -30 -29 2 -22 -42
-50 -52 -33 -9 14 -18 12 -41 -5 -17 -14 -14 -15 43 -11 71 5 83 10 83 34 0 9
12 26 28 38 15 12 24 25 21 29 -4 3 -10 2 -13 -4z"/>
<path d="M3829 7063 c-8 -10 -21 -31 -28 -48 -7 -16 -17 -38 -22 -47 -5 -10
-5 -20 1 -23 6 -4 13 2 16 12 7 21 33 80 46 106 5 9 7 17 5 17 -2 0 -10 -8
-18 -17z"/>
<path d="M4044 6965 c-18 -15 -18 -15 10 -13 16 2 31 9 34 16 5 17 -20 15 -44
-3z"/>
<path d="M3860 6925 c-14 -16 -3 -20 19 -6 8 5 9 11 3 15 -5 3 -15 -1 -22 -9z"/>
<path d="M3950 6910 c0 -5 5 -10 10 -10 6 0 10 5 10 10 0 6 -4 10 -10 10 -5 0
-10 -4 -10 -10z"/>
<path d="M3810 6809 l-34 -29 33 0 c24 0 32 4 28 14 -3 7 0 19 6 25 24 24 0
17 -33 -10z"/>
<path d="M3720 6790 c-8 -5 -12 -11 -9 -14 3 -3 14 1 25 9 21 16 8 20 -16 5z"/>
<path d="M3853 6753 c-15 -5 -17 -23 -4 -23 5 0 11 7 15 15 3 8 4 15 3 14 -1
0 -8 -3 -14 -6z"/>
<path d="M5790 6194 c0 -8 5 -12 10 -9 6 4 8 11 5 16 -9 14 -15 11 -15 -7z"/>
<path d="M5725 6180 c3 -5 10 -10 16 -10 5 0 9 5 9 10 0 6 -7 10 -16 10 -8 0
-12 -4 -9 -10z"/>
<path d="M5745 6150 c3 -5 8 -10 11 -10 2 0 4 5 4 10 0 6 -5 10 -11 10 -5 0
-7 -4 -4 -10z"/>
<path d="M5729 5566 c-7 -23 -23 -63 -34 -91 -30 -69 -48 -125 -42 -132 7 -7
34 48 32 67 0 8 2 17 5 20 3 3 19 39 34 80 16 41 33 80 37 86 5 6 3 11 -5 11
-8 0 -20 -19 -27 -41z"/>
<path d="M5747 5504 c-10 -19 -12 -32 -7 -29 12 7 33 55 27 61 -2 2 -11 -12
-20 -32z"/>
<path d="M3107 6823 c-11 -10 -8 -53 3 -53 6 0 10 -9 10 -20 0 -11 5 -20 10
-20 6 0 10 -7 10 -15 0 -8 7 -15 15 -15 17 0 20 16 5 25 -5 3 -10 14 -10 24 0
16 -27 81 -34 81 -1 0 -6 -3 -9 -7z"/>
<path d="M3180 6797 c0 -13 10 -34 23 -47 12 -13 28 -36 35 -50 12 -24 12 -24
7 9 -3 18 -5 40 -5 48 0 10 -6 12 -19 8 -14 -4 -21 0 -26 14 -3 12 -3 25 0 31
3 5 1 10 -4 10 -6 0 -11 -10 -11 -23z"/>
<path d="M2686 6655 c-3 -8 -3 -15 0 -15 3 0 12 7 20 15 13 13 13 15 1 15 -8
0 -17 -7 -21 -15z"/>
<path d="M2786 6595 c7 -17 40 -20 50 -4 4 8 0 9 -15 4 -12 -4 -21 -2 -21 4 0
6 -4 11 -10 11 -5 0 -7 -7 -4 -15z"/>
<path d="M2893 6583 c-12 -2 -20 -10 -17 -17 6 -15 66 -8 61 7 -4 13 -15 15
-44 10z"/>
<path d="M2980 6531 c0 -6 5 -13 10 -16 6 -3 10 1 10 9 0 9 -4 16 -10 16 -5 0
-10 -4 -10 -9z"/>
<path d="M2975 6480 c-3 -5 -2 -10 4 -10 5 0 13 5 16 10 3 6 2 10 -4 10 -5 0
-13 -4 -16 -10z"/>
<path d="M3125 6450 c4 -6 -13 -31 -38 -55 -52 -53 -49 -56 13 -15 25 17 63
35 85 41 l39 11 -24 14 c-30 16 -84 19 -75 4z"/>
<path d="M3016 6383 c-12 -16 -14 -24 -6 -21 16 5 46 48 34 48 -5 0 -18 -12
-28 -27z"/>
<path d="M2857 6382 c-10 -10 -17 -26 -17 -35 0 -9 -4 -19 -10 -22 -5 -3 -10
-22 -10 -41 0 -22 -6 -37 -15 -40 -8 -4 -15 -12 -15 -20 0 -16 -26 -9 -52 14
-12 10 -18 11 -18 4 0 -7 5 -12 10 -12 15 0 12 -36 -4 -49 -24 -20 -26 -51 -5
-64 31 -19 24 -37 -13 -30 -26 5 -30 4 -25 -10 4 -12 1 -17 -11 -18 -9 0 -1
-7 18 -14 l35 -13 -32 -1 c-17 -1 -34 -5 -38 -10 -10 -17 26 -41 64 -41 30 0
42 6 60 30 30 41 99 90 126 90 12 0 40 18 63 40 l42 39 -13 52 c-11 40 -15 47
-19 31 -9 -34 -26 -26 -38 18 -13 49 -20 51 -18 5 2 -47 -4 -50 -35 -21 -29
27 -36 71 -16 108 14 27 6 33 -14 10z"/>
<path d="M4035 6370 c3 -5 11 -10 16 -10 6 0 7 5 4 10 -3 6 -11 10 -16 10 -6
0 -7 -4 -4 -10z"/>
<path d="M4625 4630 c-3 -5 1 -10 9 -10 9 0 16 5 16 10 0 6 -4 10 -9 10 -6 0
-13 -4 -16 -10z"/>
<path d="M4349 4624 c-1 -5 -1 -13 0 -18 1 -5 -8 -20 -21 -34 l-23 -24 45 7
c57 9 60 13 32 35 -13 11 -22 22 -22 25 1 4 -1 9 -4 13 -3 3 -7 1 -7 -4z"/>
<path d="M3410 4580 c0 -5 7 -10 15 -10 8 0 15 5 15 10 0 6 -7 10 -15 10 -8 0
-15 -4 -15 -10z"/>
<path d="M3464 4568 c-8 -12 3 -25 26 -31 16 -4 20 0 20 18 0 18 -5 23 -21 22
-11 -1 -23 -5 -25 -9z"/>
<path d="M3835 4561 c-3 -2 -5 -13 -5 -23 0 -23 37 -38 96 -38 71 0 369 48
360 58 -7 6 -445 9 -451 3z"/>
<path d="M3677 4543 c-4 -3 -7 -11 -7 -17 0 -6 5 -5 12 2 6 6 9 14 7 17 -3 3
-9 2 -12 -2z"/>
<path d="M3727 4543 c-6 -13 -3 -33 6 -33 4 0 11 0 16 0 5 0 7 9 4 20 -5 20
-19 27 -26 13z"/>
<path d="M2584 10128 c-8 -12 59 -59 80 -56 15 2 22 11 24 34 l3 31 -51 -1
c-29 -1 -54 -4 -56 -8z"/>
<path d="M2739 10026 c-14 -13 -35 -27 -47 -30 -27 -9 -27 -16 -1 -45 31 -33
70 -25 81 17 5 19 5 45 1 58 l-8 24 -26 -24z"/>
<path d="M2826 9885 c-3 -9 -22 -23 -41 -31 -35 -14 -35 -15 -19 -39 9 -14 28
-28 41 -31 36 -9 43 5 47 90 1 24 -19 32 -28 11z"/>
<path d="M2939 9813 c-1 -5 -1 -11 0 -15 0 -4 -22 -30 -50 -59 -47 -48 -50
-54 -38 -76 8 -15 21 -23 40 -23 35 0 39 7 46 75 3 30 12 60 19 66 7 6 10 17
7 25 -5 15 -22 19 -24 7z"/>
<path d="M3026 9677 c-17 -12 -40 -48 -52 -78 -3 -9 -17 -22 -30 -29 -13 -8
-24 -18 -24 -24 0 -21 31 -56 49 -56 26 0 38 18 46 71 4 29 17 58 35 79 16 19
27 37 24 42 -7 12 -28 10 -48 -5z"/>
<path d="M1760 9211 c-54 -11 -94 -36 -139 -87 -54 -62 -55 -91 -1 -121 21
-13 47 -23 57 -23 10 0 27 -6 38 -14 61 -42 163 -90 188 -88 36 3 88 -24 81
-42 -3 -8 -1 -17 5 -21 17 -10 13 -23 -7 -29 -25 -8 -52 -69 -52 -118 0 -51
46 -116 105 -149 59 -33 123 -88 132 -112 13 -39 9 -51 -39 -111 -36 -45 -48
-68 -48 -94 0 -33 1 -34 33 -28 98 21 162 18 238 -8 56 -19 96 -26 155 -26 52
-1 98 -7 134 -20 30 -11 61 -19 68 -20 6 0 38 27 69 60 32 33 63 60 70 60 40
0 69 120 52 215 -6 28 -12 73 -14 101 -7 73 -30 124 -56 124 -12 0 -36 8 -53
19 -42 25 -169 43 -221 31 -22 -5 -48 -7 -57 -4 -12 4 -18 0 -18 -10 0 -9 6
-16 14 -16 18 0 30 -33 21 -59 -10 -34 -70 -37 -102 -5 -10 9 -8 17 7 37 11
13 17 27 14 30 -3 3 4 8 15 12 26 8 27 22 3 29 -10 3 -26 21 -36 38 -36 62
-88 119 -129 140 -81 41 -97 58 -97 103 0 43 -28 133 -49 159 -7 8 -34 21 -59
30 -52 16 -268 27 -322 17z"/>
<path d="M2460 8610 c0 -5 5 -10 10 -10 6 0 10 5 10 10 0 6 -4 10 -10 10 -5 0
-10 -4 -10 -10z"/>
<path d="M850 8025 c-10 -12 -10 -15 3 -15 19 0 31 16 18 24 -5 3 -14 -1 -21
-9z"/>
<path d="M938 8015 c-3 -11 -9 -32 -12 -47 -10 -46 -36 -52 -126 -29 -123 32
-137 28 -103 -29 12 -22 24 -28 47 -28 17 0 60 -10 95 -22 80 -28 93 -22 104
51 9 63 6 136 -5 104z"/>
<path d="M1010 7934 c0 -38 -25 -131 -40 -150 -17 -20 -55 -18 -129 7 -34 12
-65 18 -68 15 -11 -11 35 -81 54 -82 10 0 25 -3 33 -6 8 -3 44 -14 79 -23 87
-23 92 -17 101 117 5 90 4 106 -12 127 l-18 24 0 -29z"/>
<path d="M1102 7772 c-1 -26 -9 -72 -19 -102 -22 -67 -34 -70 -135 -36 -75 25
-97 22 -80 -11 13 -24 153 -90 208 -99 51 -8 54 -2 64 136 5 76 3 102 -9 127
-9 18 -19 33 -23 33 -3 0 -6 -22 -6 -48z"/>
<path d="M1197 7654 c-3 -3 -3 -12 0 -19 6 -18 -16 -123 -33 -157 -19 -37 -49
-36 -139 2 -38 17 -73 30 -77 30 -4 0 3 -15 15 -34 26 -40 142 -105 204 -113
38 -5 41 -4 52 27 6 18 11 66 11 106 0 58 3 75 17 82 15 9 14 13 -11 46 -29
39 -30 39 -39 30z"/>
<path d="M1283 7433 c-6 -38 -18 -85 -27 -107 -16 -37 -17 -38 -56 -33 -22 3
-70 19 -107 36 -73 35 -73 36 -3 -42 33 -37 109 -76 164 -83 42 -6 44 -5 55
27 7 19 15 66 18 104 4 39 12 75 19 80 9 8 7 18 -12 48 -13 20 -28 37 -32 37
-5 0 -13 -30 -19 -67z"/>
<path d="M1373 7265 c-15 -93 -36 -135 -66 -135 -12 0 -53 14 -91 30 -38 16
-71 28 -73 27 -11 -11 78 -91 129 -116 111 -56 137 -39 145 99 4 51 10 79 21
87 13 11 12 16 -9 48 -13 19 -29 35 -34 35 -6 0 -16 -34 -22 -75z"/>
<path d="M6751 7187 c-16 -24 -50 -60 -75 -81 -67 -54 -79 -84 -71 -166 6 -59
11 -72 40 -100 32 -31 35 -32 94 -25 l61 7 0 204 c0 122 -4 204 -10 204 -5 0
-22 -19 -39 -43z"/>
<path d="M1437 7138 c-8 -58 -42 -161 -54 -165 -5 -2 -40 10 -76 26 -37 17
-67 27 -67 23 0 -4 21 -29 48 -54 50 -51 126 -85 147 -68 11 9 28 62 52 160 8
29 13 35 36 35 32 -1 33 7 6 51 -17 27 -27 34 -53 34 -31 0 -34 -2 -39 -42z"/>
<path d="M845 7137 c-92 -49 -159 -152 -169 -259 -4 -36 -39 -69 -101 -98 -27
-12 -62 -39 -78 -58 -23 -30 -27 -44 -26 -91 1 -31 4 -50 7 -43 3 10 7 10 18
1 12 -10 12 -15 1 -33 -8 -12 -17 -34 -20 -51 -3 -16 -17 -61 -32 -100 -20
-55 -24 -81 -20 -120 10 -81 35 -157 65 -195 32 -42 64 -104 74 -143 11 -46
99 -198 138 -240 31 -32 35 -42 26 -56 -8 -13 -8 -27 0 -49 6 -17 7 -34 2 -37
-5 -3 -10 3 -12 12 -3 13 -9 6 -23 -22 -10 -22 -31 -56 -47 -75 -15 -19 -28
-38 -28 -43 0 -4 -13 -25 -30 -45 -16 -20 -32 -52 -35 -71 -3 -18 -14 -51 -24
-72 -11 -21 -22 -60 -26 -87 -5 -40 -3 -51 16 -72 26 -30 58 -98 59 -125 1
-32 16 -51 32 -38 7 6 27 13 43 17 41 9 120 49 106 54 -18 6 -13 30 12 55 12
12 22 24 22 27 0 12 47 80 55 80 5 0 12 10 16 22 11 35 45 58 66 44 23 -14 33
0 42 54 4 25 16 47 36 63 16 14 30 35 30 46 0 34 22 70 44 73 16 2 23 14 31
53 12 60 22 78 41 71 20 -8 35 25 22 48 -8 15 -7 22 6 31 9 7 16 24 16 38 0
18 13 37 44 63 27 22 48 51 56 75 11 31 18 39 34 37 16 -2 21 3 22 20 1 13 11
30 22 38 18 12 19 18 10 51 -12 44 -5 122 17 183 28 79 20 127 -40 257 -72
154 -65 143 -119 179 -88 59 -99 73 -91 124 12 82 8 280 -6 280 -4 0 -9 10
-13 23 -10 40 -40 65 -107 90 -98 37 -137 40 -184 14z m-285 -518 c0 13 53 4
58 -11 2 -4 8 -6 12 -3 5 3 12 1 15 -5 4 -6 3 -10 -2 -9 -4 1 -16 -1 -27 -6
-11 -5 -26 -3 -37 3 -10 7 -28 12 -38 12 -23 0 -35 15 -26 31 5 7 14 4 26 -7
11 -10 19 -12 19 -5z"/>
<path d="M1535 7008 c-2 -7 -14 -42 -26 -78 -37 -112 -45 -118 -119 -80 -60
31 -68 24 -25 -21 73 -75 139 -106 162 -76 9 11 27 63 50 142 7 24 15 31 41
33 17 2 32 6 32 10 0 4 -11 24 -25 45 -20 29 -32 37 -56 37 -16 0 -32 -6 -34
-12z"/>
<path d="M2385 6990 c3 -5 8 -10 11 -10 2 0 4 5 4 10 0 6 -5 10 -11 10 -5 0
-7 -4 -4 -10z"/>
<path d="M2245 6921 c-10 -17 12 -21 25 -6 10 12 10 15 -3 15 -9 0 -18 -4 -22
-9z"/>
<path d="M1625 6858 c-2 -7 -11 -36 -19 -64 -18 -65 -41 -110 -59 -117 -8 -3
-38 5 -66 18 -28 13 -51 22 -51 19 0 -17 93 -100 130 -116 43 -18 45 -19 58
-1 7 10 24 55 38 100 24 80 26 82 59 85 l34 3 -28 40 c-20 31 -34 41 -59 43
-20 2 -34 -2 -37 -10z"/>
<path d="M2160 6855 c-10 -12 -10 -15 4 -15 9 0 16 7 16 15 0 8 -2 15 -4 15
-2 0 -9 -7 -16 -15z"/>
<path d="M2005 6729 c-12 -19 5 -23 22 -6 16 16 16 17 1 17 -9 0 -20 -5 -23
-11z"/>
<path d="M1695 6648 c-24 -72 -56 -128 -73 -128 -9 0 -35 11 -59 25 -23 14
-43 22 -43 18 0 -11 86 -94 120 -117 13 -9 30 -16 37 -16 16 0 52 70 68 130
11 43 13 45 57 53 l46 9 -26 39 c-23 35 -30 39 -68 39 -42 0 -42 0 -59 -52z"/>
<path d="M1960 6680 c-10 -19 -10 -20 9 -8 22 13 28 28 11 28 -5 0 -14 -9 -20
-20z"/>
<path d="M1900 6615 c-19 -20 -21 -27 -10 -40 13 -15 35 -11 25 5 -3 5 -1 19
5 31 17 30 7 33 -20 4z"/>
<path d="M1793 6532 c-7 -7 -13 -19 -13 -25 0 -7 -13 -40 -30 -74 -33 -70 -44
-75 -98 -41 -24 15 -32 17 -26 6 30 -50 108 -118 137 -118 8 0 26 27 41 63 47
109 49 111 93 121 l41 8 -17 39 c-16 38 -17 39 -65 37 -27 -2 -55 -9 -63 -16z"/>
<path d="M1635 5718 c-4 -24 -10 -70 -15 -103 -4 -39 -8 -50 -10 -30 -2 27 -3
27 -7 6 -3 -13 -13 -33 -24 -44 -17 -19 -20 -26 -19 -54 0 -4 15 -6 33 -5 l32
3 -23 -16 c-18 -13 -21 -20 -11 -31 17 -21 28 -17 35 11 3 14 10 25 15 25 5 0
9 10 9 22 0 12 7 29 16 39 14 15 14 29 4 111 -6 51 -15 97 -19 101 -5 5 -12
-11 -16 -35z"/>
<path d="M1210 5705 c0 -8 4 -15 9 -15 5 0 11 7 15 15 3 9 0 15 -9 15 -8 0
-15 -7 -15 -15z"/>
<path d="M1770 5381 c0 -6 5 -13 10 -16 6 -3 10 1 10 9 0 9 -4 16 -10 16 -5 0
-10 -4 -10 -9z"/>
<path d="M1838 5308 c5 -5 16 -8 23 -6 8 3 3 7 -10 11 -17 4 -21 3 -13 -5z"/>
<path d="M1816 5273 c-6 -14 -5 -15 5 -6 7 7 10 15 7 18 -3 3 -9 -2 -12 -12z"/>
<path d="M1870 5280 c0 -5 5 -10 11 -10 5 0 7 5 4 10 -3 6 -8 10 -11 10 -2 0
-4 -4 -4 -10z"/>
<path d="M1857 5246 c-4 -9 2 -17 14 -21 25 -8 34 -1 26 20 -8 19 -33 20 -40
1z"/>
<path d="M1910 5195 c0 -9 7 -18 15 -21 11 -5 12 -10 4 -26 -9 -18 -8 -18 10
-9 16 9 22 8 29 -6 5 -10 7 -24 5 -30 -3 -7 2 -13 10 -13 22 0 27 11 15 34 -7
11 -11 24 -10 29 1 4 -5 7 -13 7 -8 0 -15 4 -15 9 0 5 -9 11 -21 14 -12 3 -18
10 -14 16 3 6 1 11 -4 11 -6 0 -11 -7 -11 -15z"/>
<path d="M1850 5180 c0 -5 5 -10 10 -10 6 0 10 5 10 10 0 6 -4 10 -10 10 -5 0
-10 -4 -10 -10z"/>
<path d="M1860 5135 c1 -26 2 -28 11 -12 8 14 8 22 0 30 -8 8 -11 3 -11 -18z"/>
<path d="M1840 5048 c0 -4 7 -8 15 -8 8 0 15 4 15 8 0 5 -7 9 -15 9 -8 0 -15
-4 -15 -9z"/>
<path d="M1913 5020 c-8 -12 -9 -21 -3 -25 6 -4 13 1 16 10 5 12 9 13 20 4 21
-17 28 -4 9 15 -21 21 -28 20 -42 -4z"/>
<path d="M6220 4970 c0 -5 5 -10 10 -10 6 0 10 5 10 10 0 6 -4 10 -10 10 -5 0
-10 -4 -10 -10z"/>
<path d="M1865 4960 c-7 -12 25 -50 43 -50 7 0 11 -4 8 -9 -4 -5 3 -7 14 -4
14 4 20 0 20 -11 0 -9 5 -16 10 -16 6 0 10 9 10 20 0 11 -7 20 -15 20 -8 0
-15 5 -15 11 0 6 -9 9 -20 6 -16 -4 -20 0 -20 19 0 24 -23 34 -35 14z"/>
<path d="M2393 4897 c4 -12 47 -18 47 -6 0 3 -11 9 -25 12 -15 2 -24 0 -22 -6z"/>
<path d="M1921 4774 c0 -11 3 -14 6 -6 3 7 2 16 -1 19 -3 4 -6 -2 -5 -13z"/>
<path d="M1878 4723 c-6 -44 -1 -58 16 -44 17 14 18 57 2 70 -11 9 -15 4 -18
-26z"/>
<path d="M1960 4695 c0 -8 4 -15 10 -15 5 0 7 7 4 15 -4 8 -8 15 -10 15 -2 0
-4 -7 -4 -15z"/>
<path d="M6745 4674 c-27 -7 -67 -13 -87 -14 -52 0 -85 -15 -123 -55 -45 -46
-53 -63 -50 -106 4 -43 26 -119 35 -119 8 0 60 -104 60 -120 0 -21 33 -75 64
-106 18 -17 59 -63 92 -104 l59 -73 3 182 c1 100 1 260 0 355 l-3 173 -50 -13z"/>
<path d="M1276 4518 c-3 -13 -1 -27 4 -32 7 -7 10 1 10 22 0 37 -5 41 -14 10z"/>
<path d="M2045 4440 c3 -5 8 -10 11 -10 2 0 4 5 4 10 0 6 -5 10 -11 10 -5 0
-7 -4 -4 -10z"/>
<path d="M2096 4432 c-3 -5 1 -15 9 -22 16 -14 20 -3 6 19 -5 8 -11 9 -15 3z"/>
<path d="M1098 4368 c-35 -12 -36 -33 -4 -164 13 -54 31 -139 41 -189 21 -119
38 -147 94 -158 23 -5 45 -7 47 -4 7 6 45 193 53 262 14 105 5 136 -44 154
-20 7 -58 35 -85 62 -51 51 -58 54 -102 37z"/>
<path d="M2073 4219 c-14 -14 -6 -39 12 -39 7 0 15 7 19 15 3 9 0 15 -10 15
-8 0 -12 5 -9 10 8 13 2 13 -12 -1z"/>
<path d="M2040 4145 c0 -9 11 -27 25 -41 24 -24 25 -24 25 -4 0 11 -4 20 -9
20 -5 0 -13 9 -16 20 -7 24 -25 27 -25 5z"/>
<path d="M2040 3890 c0 -5 5 -10 10 -10 6 0 10 5 10 10 0 6 -4 10 -10 10 -5 0
-10 -4 -10 -10z"/>
<path d="M2030 3744 c0 -8 5 -12 10 -9 6 3 10 10 10 16 0 5 -4 9 -10 9 -5 0
-10 -7 -10 -16z"/>
<path d="M5860 3312 c0 -10 22 -32 32 -32 5 0 3 9 -4 20 -13 20 -28 27 -28 12z"/>
<path d="M5887 3134 c-45 -13 -78 -74 -92 -166 -6 -39 -4 -45 17 -55 13 -7 38
-15 56 -18 25 -5 32 -3 32 9 0 9 -7 16 -16 16 -20 0 -15 29 8 44 22 13 49 -7
32 -24 -6 -6 -9 -23 -6 -39 5 -34 31 -45 70 -30 14 5 38 7 54 4 23 -6 34 -1
55 21 24 26 27 27 69 16 71 -19 76 -17 72 26 -3 33 0 37 22 40 24 3 24 3 6
-11 -10 -8 -16 -19 -12 -25 10 -17 19 -15 59 13 21 13 39 20 42 14 8 -12 25
-2 25 15 0 13 -54 36 -87 36 -12 0 -23 7 -27 15 -3 8 -15 15 -27 15 -13 0 -31
7 -40 16 -10 9 -27 18 -36 19 -26 2 -77 25 -84 37 -7 11 -162 20 -192 12z
m208 -94 c3 -5 1 -10 -4 -10 -6 0 -11 5 -11 10 0 6 2 10 4 10 3 0 8 -4 11 -10z
m100 -100 c-10 -11 -22 -20 -27 -20 -4 0 -8 9 -8 20 0 15 7 20 27 20 25 0 26
0 8 -20z"/>
<path d="M6364 2849 c-3 -5 4 -9 14 -9 11 0 22 -7 26 -15 3 -8 12 -15 21 -15
8 0 15 7 15 15 0 8 5 15 11 15 5 0 7 5 3 11 -4 8 -9 7 -15 -2 -6 -11 -14 -11
-39 -2 -17 6 -32 7 -36 2z"/>
<path d="M5270 2143 c0 -10 -3 -28 -6 -40 -5 -18 -1 -25 17 -32 15 -5 29 -5
37 1 15 13 16 60 0 76 -18 18 -48 15 -48 -5z"/>
<path d="M5857 2144 c-12 -12 -8 -24 8 -24 8 0 15 -8 15 -19 0 -10 6 -24 14
-30 11 -9 12 -7 9 12 -6 29 -37 70 -46 61z"/>
<path d="M4978 2049 c-10 -10 -18 -35 -18 -54 0 -30 3 -35 23 -35 12 0 28 -4
36 -9 7 -5 22 -6 32 -4 15 4 17 9 8 25 -8 16 -8 23 2 29 7 4 17 5 21 2 13 -7
38 17 38 37 0 24 -25 33 -41 14 -10 -13 -14 -13 -29 1 -22 20 -51 18 -72 -6z"/>
<path d="M5957 1968 c-2 -7 0 -24 6 -38 5 -14 10 -65 10 -113 -1 -69 2 -87 13
-83 7 3 15 0 18 -7 3 -8 5 -7 5 2 1 8 8 23 17 33 16 17 15 23 -5 92 -34 114
-52 146 -64 114z"/>
<path d="M5143 1928 c-28 -14 -31 -58 -5 -81 23 -21 110 -61 140 -64 12 -1 34
-16 48 -32 16 -19 35 -31 50 -31 30 0 30 4 2 43 -43 61 -81 97 -103 97 -27 0
-47 22 -39 43 11 30 -49 46 -93 25z"/>
<path d="M5583 1662 c-25 -4 -26 -6 -17 -39 4 -13 14 -23 24 -23 25 0 45 -28
42 -59 -2 -14 4 -44 13 -65 9 -21 15 -58 14 -83 -3 -48 15 -73 52 -73 29 0
106 -37 112 -54 4 -9 -1 -47 -9 -86 -16 -67 -15 -70 5 -96 26 -33 26 -44 1
-44 -17 0 -18 -3 -10 -26 8 -19 7 -31 -2 -41 -10 -12 -8 -18 12 -34 14 -10 36
-19 49 -19 22 0 23 1 8 18 -21 23 -39 72 -27 72 18 0 50 -40 50 -62 1 -61 59
-78 86 -25 18 34 62 77 79 77 6 0 2 -5 -7 -11 -10 -5 -18 -17 -18 -24 0 -19 8
-19 26 0 18 18 44 9 44 -15 0 -12 -6 -17 -17 -15 -23 3 -43 -13 -43 -34 1 -14
2 -14 11 2 5 9 17 17 24 17 16 0 20 -16 6 -24 -4 -3 -6 -17 -3 -31 5 -30 -5
-31 -36 -5 -14 11 -23 29 -22 42 3 36 0 44 -10 28 -5 -8 -10 -29 -10 -47 0
-17 -4 -35 -10 -38 -5 -3 -10 -14 -10 -23 1 -13 6 -10 21 11 l21 27 28 -20
c25 -18 29 -18 41 -4 8 9 14 22 15 28 0 6 2 17 2 23 1 7 19 21 39 30 24 12 40
28 46 48 6 17 17 36 26 43 15 11 14 13 -1 23 -20 11 -24 29 -7 29 6 0 17 7 25
15 13 13 11 14 -18 8 -30 -6 -32 -5 -19 10 15 19 38 22 61 7 11 -7 12 -12 3
-21 -6 -6 -9 -18 -6 -25 3 -8 0 -14 -7 -14 -6 0 -8 -5 -3 -12 4 -7 8 -29 8
-48 0 -40 28 -50 33 -12 3 22 22 32 22 11 0 -6 9 -8 22 -3 20 6 21 5 9 -10
-11 -14 -11 -16 1 -16 8 0 19 5 26 12 8 8 12 9 12 1 0 -6 -7 -19 -16 -27 -8
-9 -11 -16 -5 -16 6 0 11 -9 11 -20 0 -11 -5 -20 -11 -20 -5 0 -8 -4 -5 -9 3
-5 -1 -27 -9 -50 -14 -41 -16 -101 -3 -101 3 0 10 23 15 52 10 66 35 79 30 16
-2 -24 -9 -54 -16 -66 -6 -12 -9 -22 -6 -22 18 0 173 143 183 167 19 51 22
103 6 103 -8 0 -14 -6 -14 -14 0 -8 -6 -16 -12 -19 -10 -4 -10 -7 0 -18 14
-15 16 -49 3 -49 -6 0 -13 5 -16 11 -4 6 -14 8 -22 5 -16 -6 -15 16 2 57 5 12
3 17 -9 17 -9 0 -13 -6 -10 -13 3 -8 -2 -14 -11 -14 -8 0 -15 5 -15 11 0 17
37 36 57 29 12 -4 15 -3 8 5 -5 6 -21 12 -35 14 -42 5 -28 23 23 26 26 2 47
-1 47 -7 0 -5 10 -13 21 -16 19 -6 21 -13 17 -57 -3 -28 -11 -54 -19 -59 -27
-17 3 -22 31 -5 28 16 29 16 23 0 -4 -12 -3 -15 5 -10 7 4 12 2 12 -4 0 -7 -8
-9 -20 -5 -21 7 -28 -10 -7 -18 6 -3 2 -6 -10 -6 -29 -1 -38 -18 -13 -26 11
-3 28 -17 38 -30 13 -16 26 -22 39 -19 11 3 25 -2 34 -12 12 -16 12 -17 -4
-11 -11 4 -16 3 -12 -3 9 -15 -23 -24 -39 -11 -10 8 -18 6 -32 -10 -10 -11
-19 -26 -19 -32 0 -15 -26 -51 -43 -61 -12 -7 -12 -4 -2 13 9 18 8 27 -5 47
-14 21 -14 30 -3 59 16 47 1 64 -36 40 -14 -10 -23 -21 -20 -26 3 -5 -6 -14
-20 -20 -14 -7 -23 -17 -19 -22 3 -6 -7 -21 -23 -34 -16 -12 -24 -23 -17 -23
6 0 15 5 18 10 7 11 56 14 52 3 -1 -5 3 -8 8 -8 5 0 9 2 8 5 -1 3 -4 12 -8 21
-4 10 0 19 10 23 19 7 29 -15 21 -48 -4 -17 -17 -28 -41 -36 -29 -10 -34 -14
-24 -26 8 -10 26 -13 58 -10 25 2 46 5 46 6 0 0 18 2 41 4 37 2 40 0 36 -21
-2 -13 -9 -23 -14 -23 -5 0 -7 -4 -3 -10 3 -6 15 -6 30 0 15 6 27 6 30 0 6
-10 -1 -14 -19 -11 -20 4 -47 -12 -42 -25 3 -8 2 -14 -2 -14 -4 0 -16 20 -26
45 -11 25 -22 45 -25 45 -26 -1 -49 -50 -23 -50 11 -1 7 -6 -13 -17 -16 -10
-36 -16 -42 -15 -13 3 -17 -10 -13 -37 1 -12 -1 -12 -12 -3 -8 6 -24 9 -36 5
-30 -7 -28 11 3 25 16 8 25 19 24 34 0 13 -3 17 -6 11 -2 -7 -11 -13 -20 -13
-8 0 -21 -7 -30 -16 -11 -10 -19 -12 -26 -5 -7 7 -14 4 -22 -12 -7 -14 -20
-22 -37 -22 -35 -1 -49 -14 -17 -17 13 -1 33 -3 44 -4 11 -1 33 -2 49 -3 25
-1 28 -4 22 -28 -6 -27 -6 -27 9 -9 15 20 15 20 15 0 0 -21 -13 -46 -24 -45
-19 3 -26 0 -26 -10 0 -5 5 -7 10 -4 6 3 10 2 10 -2 0 -5 -13 -17 -30 -26 -23
-14 -30 -15 -30 -5 0 8 5 19 12 26 9 9 9 12 0 12 -6 0 -17 -9 -24 -20 -7 -11
-18 -20 -23 -20 -6 0 -20 -7 -31 -16 -18 -14 -16 -15 24 -10 33 5 42 3 42 -9
0 -8 5 -15 10 -15 6 0 10 7 10 16 0 13 7 15 31 10 17 -3 40 -6 50 -6 11 0 19
-4 19 -10 0 -5 -13 -10 -30 -10 -16 0 -30 -5 -30 -10 0 -14 52 -1 66 16 14 18
24 18 24 0 0 -8 -12 -23 -27 -34 -22 -15 -32 -17 -45 -9 -13 9 -21 7 -36 -7
-14 -12 -22 -14 -27 -6 -4 6 -11 7 -18 2 -17 -12 -80 -15 -72 -2 3 5 2 10 -3
10 -6 0 -12 -6 -15 -14 -3 -8 -25 -19 -49 -25 l-43 -9 48 1 c27 0 50 3 52 6 2
5 81 6 143 2 17 -1 15 -21 -2 -21 -8 0 -18 -5 -22 -11 -4 -7 2 -9 17 -7 15 2
23 -2 22 -9 -3 -14 12 -16 41 -4 19 7 19 8 -2 13 -14 4 -22 14 -22 28 0 18 4
21 25 18 13 -3 22 -1 19 3 -3 5 2 9 10 9 24 0 30 -20 10 -35 -18 -14 -18 -14
1 -14 11 0 29 4 40 9 18 8 18 9 2 9 -27 1 -10 21 18 21 13 0 30 7 39 15 8 8
18 15 23 15 4 0 26 17 48 38 22 21 49 42 60 46 l20 8 -20 8 c-18 8 -17 9 8 9
16 1 27 7 27 15 0 7 7 19 15 26 13 11 15 73 15 443 0 299 -4 434 -11 444 -8 9
-8 13 0 13 7 0 11 38 11 119 0 127 -2 131 -53 131 -12 0 -37 9 -55 20 -18 11
-42 20 -53 20 -11 0 -30 11 -42 25 -21 23 -24 24 -72 11 -62 -16 -80 -49 -52
-97 9 -17 12 -27 7 -24 -7 4 -8 -8 -4 -35 l7 -41 -42 3 c-22 2 -41 6 -41 11 0
4 -18 7 -40 7 -25 0 -40 5 -40 13 -1 6 -9 2 -20 -11 -11 -13 -24 -20 -31 -17
-10 7 -9 56 2 95 3 11 -5 16 -28 18 -29 3 -34 -1 -48 -35 -22 -51 -6 -83 42
-83 22 0 33 -5 33 -14 0 -12 -7 -12 -48 -1 -34 8 -67 10 -112 4 -70 -10 -80
-7 -56 16 18 18 21 35 7 35 -16 0 -61 46 -61 62 0 8 -9 23 -19 33 -11 9 -30
40 -41 69 l-22 52 -56 -2 c-55 -2 -77 -8 -135 -41 -28 -14 -30 -14 -55 15 -28
31 -51 40 -89 34z m391 -278 c10 -25 7 -30 -20 -43 -32 -14 -42 -7 -26 20 7
11 10 24 7 29 -4 6 3 10 13 10 11 0 23 -7 26 -16z m366 12 c0 -9 -30 -14 -35
-6 -4 6 3 10 14 10 12 0 21 -2 21 -4z m400 -146 c0 -5 -4 -10 -10 -10 -5 0
-10 5 -10 10 0 6 5 10 10 10 6 0 10 -4 10 -10z m-40 -29 c0 -13 -55 -30 -70
-21 -7 4 -10 12 -7 16 7 12 77 16 77 5z m-207 -39 c-12 -13 -22 -16 -30 -9 -9
6 -13 6 -13 -2 0 -6 -7 -11 -15 -11 -17 0 -18 2 -9 24 4 11 19 16 45 16 38 0
38 -1 22 -18z m-313 -121 c0 -5 -18 -11 -40 -13 -39 -3 -43 6 -5 15 33 8 45 7
45 -2z m137 -43 c-3 -7 -5 -2 -5 12 0 14 2 19 5 13 2 -7 2 -19 0 -25z m60 -8
c-1 -22 -17 -28 -17 -7 0 12 9 27 16 27 2 0 2 -9 1 -20z m-182 -17 c-9 -37
-55 -81 -55 -54 0 14 44 80 54 81 4 0 5 -12 1 -27z m265 -7 c0 -3 -4 -8 -10
-11 -5 -3 -10 -1 -10 4 0 6 5 11 10 11 6 0 10 -2 10 -4z m320 -15 c0 -5 -7
-12 -16 -15 -24 -9 -28 -7 -14 9 14 17 30 20 30 6z m-42 -47 c32 -7 43 -27 32
-59 -6 -17 -8 -16 -14 8 -4 19 -18 33 -39 42 -35 15 -27 19 21 9z m-291 -10
c-3 -3 -12 -4 -19 -1 -8 3 -5 6 6 6 11 1 17 -2 13 -5z m-44 -49 c-5 -25 -7
-26 -13 -10 -4 11 -2 25 4 31 15 16 15 14 9 -21z m287 25 c12 -8 9 -10 -12
-10 -16 0 -28 5 -28 10 0 13 20 13 40 0z m-202 -53 c9 1 11 0 5 -3 -7 -3 -13
-12 -13 -20 0 -19 -35 -2 -44 22 -10 26 5 39 21 18 8 -10 22 -18 31 -17z m202
3 c0 -5 -4 -10 -10 -10 -5 0 -10 5 -10 10 0 6 5 10 10 10 6 0 10 -4 10 -10z
m-266 -15 c-4 -8 -8 -15 -10 -15 -2 0 -4 7 -4 15 0 8 4 15 10 15 5 0 7 -7 4
-15z m286 -35 c0 -13 -40 -13 -60 0 -11 7 -5 10 23 10 20 0 37 -4 37 -10z m60
-20 c0 -5 -7 -10 -16 -10 -8 0 -12 5 -9 10 3 6 10 10 16 10 5 0 9 -4 9 -10z
m14 -78 c-10 -39 -15 -45 -28 -32 -8 9 -8 14 2 17 6 3 9 9 6 14 -9 14 4 41 16
34 6 -3 7 -18 4 -33z m-124 1 c0 -5 -7 -16 -14 -26 -13 -16 -14 -16 -20 -1 -4
10 -1 21 6 26 16 10 28 10 28 1z m55 -3 c-3 -5 -10 -10 -16 -10 -5 0 -9 5 -9
10 0 6 7 10 16 10 8 0 12 -4 9 -10z m-5 -50 c-37 -29 -54 -25 -27 5 6 8 21 14
32 14 18 1 18 -1 -5 -19z m-3 -65 c8 -9 13 -19 9 -22 -7 -7 -36 16 -36 28 0
13 10 11 27 -6z m-147 -88 c0 -2 -10 -12 -21 -23 -22 -19 -22 -19 -10 4 10 18
31 31 31 19z m-46 -73 c21 -21 20 -31 -4 -44 -15 -8 -19 -17 -14 -32 5 -17 3
-19 -15 -13 -12 4 -21 2 -21 -4 0 -6 -7 -11 -15 -11 -19 0 -19 10 0 46 8 16
15 36 15 45 0 32 29 39 54 13z m79 -14 c4 -15 0 -20 -14 -20 -12 0 -19 7 -19
20 0 11 6 20 14 20 7 0 16 -9 19 -20z m-18 -49 c3 -5 1 -12 -5 -16 -5 -3 -10
1 -10 9 0 18 6 21 15 7z m111 -46 c-26 -19 -42 -19 -26 0 7 8 20 15 29 15 13
-1 13 -3 -3 -15z m-30 -41 c-18 -17 -26 -18 -26 -1 0 7 9 13 20 14 18 2 18 0
6 -13z m-76 -43 c0 -5 -10 -11 -22 -15 -34 -9 -38 -7 -32 9 6 16 54 21 54 6z"/>
<path d="M5353 1633 c-27 -4 -33 -9 -33 -29 0 -27 27 -34 36 -9 4 8 16 15 29
15 12 0 28 7 35 15 13 16 6 17 -67 8z"/>
<path d="M5520 1580 c0 -11 4 -20 9 -20 5 0 11 9 14 20 3 13 0 20 -9 20 -8 0
-14 -9 -14 -20z"/>
<path d="M5035 1567 c-16 -6 -31 -12 -33 -13 -2 -1 7 -22 19 -47 23 -46 21
-74 -6 -82 -8 -3 -22 -7 -31 -10 -13 -4 -12 -8 5 -27 25 -26 28 -68 6 -68 -8
0 -15 -7 -15 -15 0 -8 5 -15 10 -15 6 0 10 5 10 11 0 6 11 8 28 4 25 -5 35 0
71 37 22 24 44 51 47 61 4 12 16 17 45 17 21 0 39 -4 39 -10 0 -5 10 -10 23
-10 18 0 19 2 7 10 -20 12 -4 40 34 58 21 11 30 11 42 2 21 -18 17 -28 -18
-46 -30 -16 -31 -17 -13 -30 11 -8 25 -12 32 -9 44 18 46 18 39 7 -8 -13 7
-15 42 -6 12 4 22 12 22 20 0 8 6 11 15 8 8 -4 15 -1 15 4 0 6 9 13 19 17 10
3 21 17 23 30 6 31 -1 39 -21 22 -24 -20 -51 -28 -45 -14 2 7 -1 20 -8 29 -11
14 -20 16 -53 8 -44 -10 -65 0 -65 31 0 15 -7 19 -31 19 -31 0 -31 0 -25 -40
7 -48 -12 -55 -38 -15 -12 18 -24 25 -44 23 -30 -2 -61 12 -82 36 -14 18 -23
18 -65 3z"/>
<path d="M4780 1421 c0 -15 31 -42 40 -36 5 3 2 15 -8 25 -18 21 -32 26 -32
11z"/>
<path d="M1480 1355 c-7 -9 -18 -14 -24 -12 -24 9 -46 -15 -53 -56 -5 -34 -18
-53 -65 -99 -32 -32 -58 -63 -58 -68 0 -22 50 17 106 85 33 38 71 81 85 96 38
37 54 69 36 69 -8 0 -20 -7 -27 -15z"/>
<path d="M5415 1170 c-3 -5 -1 -10 4 -10 6 0 11 -12 11 -27 0 -43 13 -57 37
-42 11 7 29 9 39 5 14 -5 15 -9 5 -15 -15 -10 0 -41 30 -60 25 -15 26 5 2 39
-10 14 -17 26 -15 28 16 17 -62 92 -97 92 -5 0 -13 -4 -16 -10z"/>
<path d="M6234 882 c1 -62 11 -82 20 -39 10 45 11 66 1 66 -5 0 -12 7 -15 17
-4 10 -6 -10 -6 -44z"/>
<path d="M6321 898 c0 -9 -4 -25 -7 -35 -5 -17 -5 -17 6 0 6 10 9 25 7 35 -4
15 -5 15 -6 0z"/>
<path d="M1196 883 c-4 -13 -2 -32 5 -45 16 -30 23 -9 11 34 -8 30 -9 31 -16
11z"/>
<path d="M6181 884 c0 -11 3 -14 6 -6 3 7 2 16 -1 19 -3 4 -6 -2 -5 -13z"/>
<path d="M5935 860 c3 -5 8 -10 11 -10 2 0 4 5 4 10 0 6 -5 10 -11 10 -5 0 -7
-4 -4 -10z"/>
<path d="M6154 842 c-12 -8 -34 -46 -34 -58 0 -4 11 7 25 26 31 41 32 48 9 32z"/>
<path d="M6313 830 c1 -6 -9 -16 -22 -23 -24 -12 -40 -37 -24 -37 12 0 63 49
63 60 0 6 -4 10 -10 10 -5 0 -9 -5 -7 -10z"/>
<path d="M5896 794 c-9 -24 -7 -28 9 -14 17 14 20 30 6 30 -5 0 -12 -7 -15
-16z"/>
<path d="M6076 798 c-11 -36 -14 -76 -5 -88 5 -8 9 -10 10 -5 0 6 3 31 5 58 5
43 -1 64 -10 35z"/>
<path d="M6216 767 c-8 -30 -8 -62 1 -53 4 3 8 12 9 19 1 7 5 19 9 28 3 10 2
20 -3 23 -5 3 -12 -4 -16 -17z"/>
<path d="M6280 752 c0 -12 19 -26 26 -19 2 2 -2 10 -11 17 -9 8 -15 8 -15 2z"/>
<path d="M6146 705 c-9 -26 -7 -32 5 -12 6 10 9 21 6 23 -2 3 -7 -2 -11 -11z"/>
<path d="M6250 701 c-7 -15 -7 -21 0 -21 12 0 25 28 17 36 -3 3 -10 -4 -17
-15z"/>
<path d="M6322 680 c-24 -22 -27 -30 -13 -30 5 0 16 11 25 25 20 30 17 32 -12
5z"/>
<path d="M6570 690 c0 -5 5 -10 10 -10 6 0 10 5 10 10 0 6 -4 10 -10 10 -5 0
-10 -4 -10 -10z"/>
<path d="M6269 637 c-8 -7 -18 -21 -22 -31 -6 -15 -1 -13 19 7 28 28 30 44 3
24z"/>
<path d="M5270 619 c0 -18 -4 -20 -32 -13 -54 12 -61 10 -77 -18 -13 -23 -14
-31 -3 -48 10 -16 10 -20 -1 -20 -16 0 -40 -38 -32 -50 4 -6 13 -10 20 -10 13
0 41 -38 33 -45 -6 -5 -153 -27 -218 -32 -50 -4 -70 -11 -88 -29 -14 -14 -30
-20 -40 -17 -14 5 -13 3 2 -9 17 -14 18 -17 2 -49 -28 -60 -50 -152 -51 -214
l0 -60 526 -3 527 -2 7 46 c3 26 9 53 12 60 4 10 -2 11 -27 4 -28 -8 -33 -7
-37 11 -3 11 -11 18 -19 15 -7 -3 -29 6 -49 20 -39 26 -52 29 -57 14 -2 -7
-18 -4 -43 7 l-40 18 40 3 c22 2 43 9 47 15 5 9 8 8 8 -3 0 -10 3 -11 11 -3 8
8 8 16 0 30 -6 10 -11 14 -11 9 0 -12 -80 66 -80 79 0 6 -14 28 -30 49 -17 22
-30 45 -30 52 0 7 -4 16 -10 19 -6 4 -7 -2 -2 -16 5 -12 5 -47 0 -78 -4 -31
-9 -72 -9 -91 -2 -44 -15 -70 -35 -70 -22 0 -28 28 -13 58 7 15 15 31 17 35 3
5 -5 4 -17 -2 -24 -13 -29 -11 -83 33 -44 34 -47 46 -15 47 16 1 18 2 5 6 -10
2 -18 11 -18 19 0 8 -7 14 -16 12 -10 -2 -19 3 -22 11 -4 11 2 13 24 8 20 -4
36 0 52 13 30 24 28 30 -9 30 -28 0 -31 3 -27 25 3 13 2 23 -2 20 -3 -2 -12
18 -19 44 -14 56 -36 91 -57 91 -8 0 -14 -9 -14 -21z m367 -405 c-4 -4 -13 -2
-21 5 -10 9 -15 9 -18 0 -2 -6 -13 -9 -23 -7 -17 3 -16 6 10 19 25 13 32 14
44 3 8 -8 12 -17 8 -20z"/>
<path d="M6416 625 c-12 -9 -24 -11 -29 -6 -11 11 -37 3 -37 -10 0 -5 20 -9
45 -9 25 0 45 2 45 4 0 2 3 11 6 20 8 20 -5 20 -30 1z"/>
<path d="M6423 583 c3 -5 -1 -14 -9 -21 -8 -7 -14 -10 -14 -7 0 3 -9 1 -20 -5
-24 -13 -17 -32 8 -22 51 20 78 62 41 62 -6 0 -8 -3 -6 -7z"/>
<path d="M6605 570 c-3 -5 -2 -10 4 -10 5 0 13 5 16 10 3 6 2 10 -4 10 -5 0
-13 -4 -16 -10z"/>
<path d="M5532 528 c2 -13 11 -22 23 -23 11 -2 28 -6 37 -10 16 -6 17 -4 7 24
-9 25 -16 31 -41 31 -24 0 -29 -4 -26 -22z"/>
<path d="M6311 520 c-13 -11 -29 -20 -37 -20 -8 0 -23 -9 -34 -20 -19 -19 -19
-20 -2 -20 10 0 23 5 29 11 5 5 25 18 43 27 19 9 36 23 38 30 5 18 -9 14 -37
-8z"/>
<path d="M6488 523 c6 -2 18 -2 25 0 6 3 1 5 -13 5 -14 0 -19 -2 -12 -5z"/>
<path d="M5650 485 c0 -13 4 -14 20 -5 11 6 20 13 20 15 0 3 -9 5 -20 5 -11 0
-20 -7 -20 -15z"/>
<path d="M4640 386 c5 -13 6 -27 3 -30 -4 -3 -1 -6 5 -6 7 0 9 -13 5 -37 -4
-28 -3 -35 6 -28 6 6 14 32 17 58 6 39 4 47 -10 47 -9 0 -16 5 -16 10 0 6 -4
10 -10 10 -6 0 -6 -9 0 -24z"/>
<path d="M6347 403 c-14 -13 -6 -20 18 -15 14 2 25 8 25 13 0 10 -34 12 -43 2z"/>
<path d="M6295 380 c-3 -5 1 -10 10 -10 9 0 13 5 10 10 -3 6 -8 10 -10 10 -2
0 -7 -4 -10 -10z"/>
<path d="M4712 364 c2 -11 -3 -24 -12 -31 -8 -6 -11 -15 -7 -19 10 -10 34 15
39 40 2 10 -3 21 -10 24 -9 3 -13 -2 -10 -14z"/>
<path d="M6271 345 c-27 -15 -46 -43 -37 -53 4 -3 13 4 22 16 8 12 22 22 30
22 8 0 14 7 14 15 0 8 -1 15 -2 14 -2 -1 -14 -7 -27 -14z"/>
<path d="M6185 300 c-3 -5 1 -10 9 -10 9 0 16 5 16 10 0 6 -4 10 -9 10 -6 0
-13 -4 -16 -10z"/>
<path d="M2780 276 c0 -2 7 -6 15 -10 8 -3 15 -1 15 4 0 6 -7 10 -15 10 -8 0
-15 -2 -15 -4z"/>
<path d="M6170 245 c-10 -12 -10 -15 2 -15 8 0 15 7 15 15 0 8 -1 15 -2 15 -2
0 -8 -7 -15 -15z"/>
<path d="M2886 236 c4 -10 -3 -12 -30 -9 -26 2 -34 0 -30 -9 7 -18 137 -96
171 -104 16 -3 23 -2 17 3 -7 4 -13 17 -16 28 -2 13 -11 20 -26 20 -12 0 -30
8 -39 18 -10 9 -12 17 -6 17 8 0 8 7 0 25 -12 26 -51 36 -41 11z m-9 -32 c-3
-3 -12 -4 -19 -1 -8 3 -5 6 6 6 11 1 17 -2 13 -5z"/>
<path d="M6300 239 c0 -12 61 -11 79 0 10 6 -1 9 -32 9 -26 0 -47 -4 -47 -9z"/>
<path d="M6215 230 c-7 -12 12 -12 40 0 18 8 17 9 -7 9 -15 1 -30 -3 -33 -9z"/>
<path d="M5857 223 c-3 -5 -2 -15 2 -22 7 -10 10 -10 16 -1 4 6 3 16 -3 22 -5
5 -12 6 -15 1z"/>
<path d="M5766 198 c3 -4 11 -5 19 -1 21 7 19 12 -4 10 -11 0 -18 -5 -15 -9z"/>
<path d="M6265 110 l-30 -20 30 0 c29 -1 29 -1 10 -16 -11 -8 -25 -12 -32 -10
-7 3 -15 1 -18 -4 -4 -6 -18 -11 -33 -11 -23 -1 -22 -3 8 -8 22 -5 41 -3 50 5
8 6 28 16 44 21 37 11 44 29 15 36 -11 3 -18 10 -14 16 9 15 4 14 -30 -9z"/>
<path d="M4572 48 c2 -6 10 -14 16 -16 7 -2 10 2 6 12 -7 18 -28 22 -22 4z"/>
<path d="M2338 33 c7 -3 16 -2 19 1 4 3 -2 6 -13 5 -11 0 -14 -3 -6 -6z"/>
<path d="M4565 10 c-3 -5 1 -10 9 -10 9 0 16 5 16 10 0 6 -4 10 -9 10 -6 0
-13 -4 -16 -10z"/>
<path d="M4610 10 c0 -5 5 -10 11 -10 5 0 7 5 4 10 -3 6 -8 10 -11 10 -2 0 -4
-4 -4 -10z"/>
</g>
</svg>
